<svg width="45" height="41" viewBox="0 0 45 41" fill="none" xmlns="http://www.w3.org/2000/svg">
<ellipse cx="22.3618" cy="20.004" rx="21.9028" ry="20.004" fill="#E2E2E2"/>
<path d="M27 10H17C14.2386 10 12 12.2386 12 15V25C12 27.7614 14.2386 30 17 30H27C29.7614 30 32 27.7614 32 25V15C32 12.2386 29.7614 10 27 10Z" stroke="#383638" stroke-width="2" stroke-linecap="round" stroke-linejoin="round"/>
<path d="M25.9997 19.3698C26.1231 20.2021 25.981 21.052 25.5935 21.7988C25.206 22.5456 24.5929 23.1512 23.8413 23.5295C23.0898 23.9077 22.2382 24.0394 21.4075 23.9057C20.5768 23.7721 19.8095 23.3799 19.2145 22.785C18.6196 22.1901 18.2274 21.4227 18.0938 20.592C17.9601 19.7614 18.0918 18.9097 18.47 18.1582C18.8483 17.4067 19.4539 16.7936 20.2007 16.4061C20.9475 16.0186 21.7975 15.8764 22.6297 15.9998C23.4786 16.1257 24.2646 16.5213 24.8714 17.1281C25.4782 17.735 25.8738 18.5209 25.9997 19.3698Z" stroke="#383638" stroke-width="2" stroke-linecap="round" stroke-linejoin="round"/>
<path d="M27.5 14.5H27.51" stroke="#383638" stroke-width="2" stroke-linecap="round" stroke-linejoin="round"/>
</svg>
