<svg width="500" height="278" viewBox="0 0 500 278" fill="none" xmlns="http://www.w3.org/2000/svg">
<rect x="0.74707" y="0.039917" width="498.753" height="82" rx="10" fill="#F8F8F8"/>
<rect x="16.7471" y="16.0399" width="50" height="50" rx="10" fill="#FFC727"/>
<path d="M84.1037 33.0399V19.0748H86.6573V24.8803H92.9216V19.0748H95.4753V33.0399H92.9216V26.9551H86.6573V33.0399H84.1037ZM102.279 33.2793C101.322 33.2793 100.457 33.0599 99.6858 32.621C98.9277 32.1821 98.3226 31.5769 97.8704 30.8055C97.4315 30.0208 97.212 29.1164 97.212 28.0923C97.212 27.0682 97.4381 26.1704 97.8903 25.399C98.3425 24.6143 98.9477 24.0025 99.7058 23.5636C100.477 23.1247 101.342 22.9053 102.299 22.9053C103.244 22.9053 104.095 23.1247 104.853 23.5636C105.624 24.0025 106.229 24.6143 106.668 25.399C107.121 26.1704 107.347 27.0682 107.347 28.0923C107.347 29.1164 107.121 30.0208 106.668 30.8055C106.229 31.5769 105.624 32.1821 104.853 32.621C104.081 33.0599 103.224 33.2793 102.279 33.2793ZM102.279 31.0649C102.944 31.0649 103.523 30.8188 104.015 30.3267C104.507 29.8213 104.753 29.0765 104.753 28.0923C104.753 27.1081 104.507 26.3699 104.015 25.8778C103.523 25.3724 102.951 25.1197 102.299 25.1197C101.621 25.1197 101.036 25.3724 100.544 25.8778C100.065 26.3699 99.8255 27.1081 99.8255 28.0923C99.8255 29.0765 100.065 29.8213 100.544 30.3267C101.036 30.8188 101.614 31.0649 102.279 31.0649ZM109.031 33.0399V23.1447H111.286L111.505 24.4813C111.824 24.0025 112.243 23.6235 112.762 23.3442C113.294 23.0516 113.906 22.9053 114.597 22.9053C116.127 22.9053 117.211 23.4971 117.849 24.6808C118.208 24.1355 118.687 23.7033 119.286 23.3841C119.898 23.0649 120.563 22.9053 121.281 22.9053C122.571 22.9053 123.562 23.291 124.253 24.0624C124.945 24.8338 125.291 25.9643 125.291 27.4539V33.0399H122.737V27.6933C122.737 26.8421 122.571 26.1904 122.238 25.7382C121.919 25.286 121.42 25.0599 120.742 25.0599C120.05 25.0599 119.492 25.3126 119.066 25.818C118.654 26.3234 118.448 27.0283 118.448 27.9327V33.0399H115.894V27.6933C115.894 26.8421 115.728 26.1904 115.395 25.7382C115.063 25.286 114.551 25.0599 113.859 25.0599C113.181 25.0599 112.629 25.3126 112.203 25.818C111.791 26.3234 111.585 27.0283 111.585 27.9327V33.0399H109.031ZM131.925 33.2793C130.927 33.2793 130.043 33.0665 129.271 32.6409C128.5 32.2153 127.895 31.6168 127.456 30.8454C127.017 30.074 126.797 29.1829 126.797 28.1721C126.797 27.148 127.01 26.2369 127.436 25.4389C127.875 24.6409 128.473 24.0225 129.231 23.5836C130.003 23.1314 130.907 22.9053 131.945 22.9053C132.915 22.9053 133.773 23.1181 134.518 23.5437C135.263 23.9693 135.841 24.5545 136.254 25.2993C136.679 26.0308 136.892 26.8487 136.892 27.7531C136.892 27.8994 136.886 28.0524 136.872 28.212C136.872 28.3716 136.866 28.5378 136.852 28.7107H129.331C129.384 29.4821 129.65 30.0873 130.129 30.5262C130.621 30.9651 131.213 31.1846 131.905 31.1846C132.423 31.1846 132.856 31.0715 133.201 30.8454C133.561 30.606 133.827 30.3001 133.999 29.9277H136.593C136.407 30.5528 136.094 31.1247 135.655 31.6434C135.23 32.1488 134.698 32.5478 134.059 32.8404C133.434 33.133 132.723 33.2793 131.925 33.2793ZM131.945 24.9801C131.319 24.9801 130.767 25.1596 130.289 25.5187C129.81 25.8645 129.504 26.3965 129.371 27.1147H134.299C134.259 26.463 134.019 25.9443 133.58 25.5586C133.142 25.1729 132.596 24.9801 131.945 24.9801ZM138.441 33.0399V23.1447H140.716L140.955 25C141.314 24.3616 141.8 23.8562 142.412 23.4838C143.037 23.0981 143.768 22.9053 144.606 22.9053V25.5985H143.888C143.329 25.5985 142.83 25.685 142.392 25.8579C141.953 26.0308 141.607 26.33 141.354 26.7556C141.115 27.1812 140.995 27.7731 140.995 28.5312V33.0399H138.441ZM149.968 33.0399V19.0748H158.985V21.1297H152.522V25.0399H157.748V27.0549H152.522V33.0399H149.968ZM164.52 33.2793C163.562 33.2793 162.698 33.0599 161.926 32.621C161.168 32.1821 160.563 31.5769 160.111 30.8055C159.672 30.0208 159.452 29.1164 159.452 28.0923C159.452 27.0682 159.679 26.1704 160.131 25.399C160.583 24.6143 161.188 24.0025 161.946 23.5636C162.718 23.1247 163.582 22.9053 164.54 22.9053C165.484 22.9053 166.335 23.1247 167.093 23.5636C167.865 24.0025 168.47 24.6143 168.909 25.399C169.361 26.1704 169.587 27.0682 169.587 28.0923C169.587 29.1164 169.361 30.0208 168.909 30.8055C168.47 31.5769 167.865 32.1821 167.093 32.621C166.322 33.0599 165.464 33.2793 164.52 33.2793ZM164.52 31.0649C165.185 31.0649 165.763 30.8188 166.255 30.3267C166.748 29.8213 166.994 29.0765 166.994 28.0923C166.994 27.1081 166.748 26.3699 166.255 25.8778C165.763 25.3724 165.191 25.1197 164.54 25.1197C163.861 25.1197 163.276 25.3724 162.784 25.8778C162.305 26.3699 162.066 27.1081 162.066 28.0923C162.066 29.0765 162.305 29.8213 162.784 30.3267C163.276 30.8188 163.855 31.0649 164.52 31.0649ZM176.02 33.2793C175.062 33.2793 174.198 33.0599 173.426 32.621C172.668 32.1821 172.063 31.5769 171.611 30.8055C171.172 30.0208 170.953 29.1164 170.953 28.0923C170.953 27.0682 171.179 26.1704 171.631 25.399C172.083 24.6143 172.688 24.0025 173.446 23.5636C174.218 23.1247 175.082 22.9053 176.04 22.9053C176.984 22.9053 177.835 23.1247 178.594 23.5636C179.365 24.0025 179.97 24.6143 180.409 25.399C180.861 26.1704 181.087 27.0682 181.087 28.0923C181.087 29.1164 180.861 30.0208 180.409 30.8055C179.97 31.5769 179.365 32.1821 178.594 32.621C177.822 33.0599 176.964 33.2793 176.02 33.2793ZM176.02 31.0649C176.685 31.0649 177.264 30.8188 177.756 30.3267C178.248 29.8213 178.494 29.0765 178.494 28.0923C178.494 27.1081 178.248 26.3699 177.756 25.8778C177.264 25.3724 176.692 25.1197 176.04 25.1197C175.362 25.1197 174.776 25.3724 174.284 25.8778C173.806 26.3699 173.566 27.1081 173.566 28.0923C173.566 29.0765 173.806 29.8213 174.284 30.3267C174.776 30.8188 175.355 31.0649 176.02 31.0649ZM187.321 33.2793C186.39 33.2793 185.558 33.0532 184.827 32.601C184.095 32.1488 183.517 31.5304 183.091 30.7457C182.666 29.9609 182.453 29.0698 182.453 28.0723C182.453 27.0748 182.666 26.1904 183.091 25.419C183.517 24.6343 184.095 24.0225 184.827 23.5836C185.558 23.1314 186.39 22.9053 187.321 22.9053C188.065 22.9053 188.717 23.0449 189.276 23.3242C189.834 23.6035 190.287 23.9959 190.632 24.5013V18.6758H193.186V33.0399H190.912L190.632 31.6235C190.313 32.0624 189.888 32.4481 189.356 32.7806C188.837 33.1131 188.159 33.2793 187.321 33.2793ZM187.859 31.0449C188.684 31.0449 189.356 30.7723 189.874 30.2269C190.406 29.6683 190.672 28.9568 190.672 28.0923C190.672 27.2278 190.406 26.5229 189.874 25.9776C189.356 25.419 188.684 25.1397 187.859 25.1397C187.048 25.1397 186.376 25.4123 185.844 25.9576C185.312 26.5029 185.046 27.2078 185.046 28.0723C185.046 28.9368 185.312 29.6484 185.844 30.207C186.376 30.7656 187.048 31.0449 187.859 31.0449ZM199.278 33.2793C198.4 33.2793 197.628 33.1397 196.963 32.8604C196.298 32.5678 195.766 32.1688 195.367 31.6634C194.968 31.158 194.729 30.5728 194.649 29.9077H197.223C197.303 30.2934 197.515 30.626 197.861 30.9053C198.22 31.1713 198.679 31.3043 199.238 31.3043C199.796 31.3043 200.202 31.1912 200.455 30.9651C200.721 30.739 200.854 30.4797 200.854 30.187C200.854 29.7614 200.667 29.4755 200.295 29.3292C199.923 29.1696 199.404 29.0166 198.739 28.8703C198.313 28.7772 197.881 28.6642 197.442 28.5312C197.003 28.3982 196.598 28.2319 196.225 28.0324C195.866 27.8196 195.574 27.5536 195.347 27.2344C195.121 26.9019 195.008 26.4963 195.008 26.0175C195.008 25.1397 195.354 24.4015 196.046 23.803C196.751 23.2045 197.735 22.9053 198.998 22.9053C200.169 22.9053 201.1 23.1779 201.791 23.7232C202.496 24.2685 202.915 25.02 203.048 25.9776H200.634C200.488 25.2461 199.936 24.8803 198.978 24.8803C198.5 24.8803 198.127 24.9734 197.861 25.1596C197.608 25.3458 197.482 25.5786 197.482 25.8579C197.482 26.1505 197.675 26.3832 198.061 26.5561C198.446 26.729 198.958 26.8886 199.597 27.0349C200.288 27.1945 200.92 27.3741 201.492 27.5736C202.077 27.7598 202.543 28.0457 202.889 28.4314C203.234 28.8038 203.407 29.3425 203.407 30.0474C203.421 30.6592 203.261 31.2112 202.928 31.7033C202.596 32.1954 202.117 32.5811 201.492 32.8604C200.867 33.1397 200.129 33.2793 199.278 33.2793ZM206.168 33.1796C205.703 33.1796 205.317 33.0333 205.011 32.7407C204.718 32.4481 204.572 32.0956 204.572 31.6833C204.572 31.2577 204.718 30.8986 205.011 30.606C205.317 30.3134 205.703 30.1671 206.168 30.1671C206.634 30.1671 207.013 30.3134 207.305 30.606C207.611 30.8986 207.764 31.2577 207.764 31.6833C207.764 32.0956 207.611 32.4481 207.305 32.7407C207.013 33.0333 206.634 33.1796 206.168 33.1796Z" fill="#1A191E"/>
<path d="M83.1278 47.4036H85.1221L88.1618 52.6933H88.2868L91.3266 47.4036H93.3209L89.0993 54.4717V59.0399H87.3493V54.4717L83.1278 47.4036ZM97.0809 59.2161C96.2627 59.2161 95.5487 59.0286 94.9388 58.6536C94.329 58.2786 93.8555 57.7539 93.5184 57.0797C93.1813 56.4054 93.0127 55.6176 93.0127 54.7161C93.0127 53.8108 93.1813 53.0191 93.5184 52.3411C93.8555 51.663 94.329 51.1365 94.9388 50.7615C95.5487 50.3865 96.2627 50.199 97.0809 50.199C97.8991 50.199 98.6131 50.3865 99.2229 50.7615C99.8328 51.1365 100.306 51.663 100.643 52.3411C100.98 53.0191 101.149 53.8108 101.149 54.7161C101.149 55.6176 100.98 56.4054 100.643 57.0797C100.306 57.7539 99.8328 58.2786 99.2229 58.6536C98.6131 59.0286 97.8991 59.2161 97.0809 59.2161ZM97.0866 57.7899C97.6169 57.7899 98.0563 57.6498 98.4047 57.3695C98.7532 57.0892 99.0108 56.7161 99.1775 56.2501C99.3479 55.7842 99.4332 55.271 99.4332 54.7104C99.4332 54.1536 99.3479 53.6422 99.1775 53.1763C99.0108 52.7066 98.7532 52.3297 98.4047 52.0456C98.0563 51.7615 97.6169 51.6195 97.0866 51.6195C96.5525 51.6195 96.1093 51.7615 95.757 52.0456C95.4085 52.3297 95.1491 52.7066 94.9786 53.1763C94.8119 53.6422 94.7286 54.1536 94.7286 54.7104C94.7286 55.271 94.8119 55.7842 94.9786 56.2501C95.1491 56.7161 95.4085 57.0892 95.757 57.3695C96.1093 57.6498 96.5525 57.7899 97.0866 57.7899ZM108.574 55.4206V50.3126H110.278V59.0399H108.608V57.5286H108.517C108.316 57.9945 107.994 58.3827 107.551 58.6933C107.112 59.0001 106.564 59.1536 105.909 59.1536C105.348 59.1536 104.852 59.0304 104.42 58.7842C103.992 58.5342 103.655 58.1649 103.409 57.6763C103.167 57.1876 103.045 56.5835 103.045 55.8638V50.3126H104.744V55.6592C104.744 56.2539 104.909 56.7274 105.239 57.0797C105.568 57.432 105.996 57.6081 106.523 57.6081C106.841 57.6081 107.157 57.5286 107.472 57.3695C107.79 57.2104 108.053 56.9698 108.261 56.6479C108.473 56.3259 108.578 55.9168 108.574 55.4206ZM120.472 59.2161C119.653 59.2161 118.939 59.0286 118.329 58.6536C117.72 58.2786 117.246 57.7539 116.909 57.0797C116.572 56.4054 116.403 55.6176 116.403 54.7161C116.403 53.8108 116.572 53.0191 116.909 52.3411C117.246 51.663 117.72 51.1365 118.329 50.7615C118.939 50.3865 119.653 50.199 120.472 50.199C121.29 50.199 122.004 50.3865 122.614 50.7615C123.223 51.1365 123.697 51.663 124.034 52.3411C124.371 53.0191 124.54 53.8108 124.54 54.7161C124.54 55.6176 124.371 56.4054 124.034 57.0797C123.697 57.7539 123.223 58.2786 122.614 58.6536C122.004 59.0286 121.29 59.2161 120.472 59.2161ZM120.477 57.7899C121.007 57.7899 121.447 57.6498 121.795 57.3695C122.144 57.0892 122.401 56.7161 122.568 56.2501C122.739 55.7842 122.824 55.271 122.824 54.7104C122.824 54.1536 122.739 53.6422 122.568 53.1763C122.401 52.7066 122.144 52.3297 121.795 52.0456C121.447 51.7615 121.007 51.6195 120.477 51.6195C119.943 51.6195 119.5 51.7615 119.148 52.0456C118.799 52.3297 118.54 52.7066 118.369 53.1763C118.203 53.6422 118.119 54.1536 118.119 54.7104C118.119 55.271 118.203 55.7842 118.369 56.2501C118.54 56.7161 118.799 57.0892 119.148 57.3695C119.5 57.6498 119.943 57.7899 120.477 57.7899ZM126.436 59.0399V50.3126H128.078V51.699H128.169C128.328 51.2293 128.608 50.86 129.01 50.5911C129.415 50.3183 129.873 50.182 130.385 50.182C130.491 50.182 130.616 50.1858 130.76 50.1933C130.908 50.2009 131.023 50.2104 131.106 50.2217V51.8467C131.038 51.8278 130.917 51.807 130.743 51.7842C130.569 51.7577 130.394 51.7445 130.22 51.7445C129.819 51.7445 129.461 51.8297 129.146 52.0001C128.836 52.1668 128.589 52.3998 128.408 52.699C128.226 52.9945 128.135 53.3316 128.135 53.7104V59.0399H126.436ZM135.531 59.2104C134.827 59.2104 134.198 59.0304 133.645 58.6706C133.096 58.307 132.664 57.7899 132.349 57.1195C132.039 56.4452 131.883 55.6365 131.883 54.6933C131.883 53.7501 132.041 52.9433 132.355 52.2729C132.673 51.6024 133.109 51.0892 133.662 50.7331C134.215 50.377 134.842 50.199 135.543 50.199C136.084 50.199 136.52 50.2899 136.849 50.4717C137.183 50.6498 137.44 50.8581 137.622 51.0967C137.808 51.3354 137.952 51.5456 138.054 51.7274H138.156V47.4036H139.855V59.0399H138.196V57.682H138.054C137.952 57.8676 137.804 58.0797 137.611 58.3183C137.421 58.557 137.16 58.7653 136.827 58.9433C136.493 59.1214 136.061 59.2104 135.531 59.2104ZM135.906 57.7615C136.395 57.7615 136.808 57.6327 137.145 57.3751C137.486 57.1138 137.743 56.752 137.918 56.2899C138.096 55.8278 138.185 55.2899 138.185 54.6763C138.185 54.0702 138.097 53.5399 137.923 53.0854C137.749 52.6308 137.493 52.2767 137.156 52.0229C136.819 51.7691 136.402 51.6422 135.906 51.6422C135.395 51.6422 134.969 51.7748 134.628 52.0399C134.287 52.3051 134.029 52.6668 133.855 53.1251C133.685 53.5835 133.599 54.1005 133.599 54.6763C133.599 55.2596 133.686 55.7842 133.861 56.2501C134.035 56.7161 134.293 57.0854 134.633 57.3581C134.978 57.627 135.402 57.7615 135.906 57.7615ZM146.041 59.2161C145.181 59.2161 144.441 59.0323 143.82 58.6649C143.202 58.2937 142.725 57.7729 142.388 57.1024C142.054 56.4282 141.888 55.6384 141.888 54.7331C141.888 53.8392 142.054 53.0513 142.388 52.3695C142.725 51.6876 143.195 51.1554 143.797 50.7729C144.403 50.3903 145.111 50.199 145.922 50.199C146.414 50.199 146.891 50.2804 147.354 50.4433C147.816 50.6062 148.23 50.8619 148.598 51.2104C148.965 51.5589 149.255 52.0115 149.467 52.5683C149.679 53.1214 149.785 53.7937 149.785 54.5854V55.1876H142.848V53.9149H148.121C148.121 53.4679 148.03 53.0721 147.848 52.7274C147.666 52.3789 147.41 52.1043 147.081 51.9036C146.755 51.7028 146.373 51.6024 145.933 51.6024C145.456 51.6024 145.039 51.7198 144.683 51.9547C144.331 52.1858 144.058 52.4888 143.865 52.8638C143.676 53.235 143.581 53.6384 143.581 54.074V55.0683C143.581 55.6517 143.683 56.1479 143.888 56.557C144.096 56.9661 144.386 57.2786 144.757 57.4945C145.128 57.7066 145.562 57.8126 146.058 57.8126C146.38 57.8126 146.674 57.7672 146.939 57.6763C147.204 57.5816 147.433 57.4414 147.626 57.2558C147.82 57.0702 147.967 56.8411 148.07 56.5683L149.677 56.8581C149.549 57.3316 149.318 57.7464 148.984 58.1024C148.655 58.4547 148.24 58.7293 147.74 58.9263C147.244 59.1195 146.677 59.2161 146.041 59.2161ZM151.67 59.0399V50.3126H153.312V51.699H153.403C153.562 51.2293 153.843 50.86 154.244 50.5911C154.65 50.3183 155.108 50.182 155.619 50.182C155.725 50.182 155.85 50.1858 155.994 50.1933C156.142 50.2009 156.257 50.2104 156.341 50.2217V51.8467C156.273 51.8278 156.151 51.807 155.977 51.7842C155.803 51.7577 155.629 51.7445 155.454 51.7445C155.053 51.7445 154.695 51.8297 154.381 52.0001C154.07 52.1668 153.824 52.3998 153.642 52.699C153.46 52.9945 153.369 53.3316 153.369 53.7104V59.0399H151.67ZM165.722 59.2161C164.903 59.2161 164.189 59.0286 163.579 58.6536C162.97 58.2786 162.496 57.7539 162.159 57.0797C161.822 56.4054 161.653 55.6176 161.653 54.7161C161.653 53.8108 161.822 53.0191 162.159 52.3411C162.496 51.663 162.97 51.1365 163.579 50.7615C164.189 50.3865 164.903 50.199 165.722 50.199C166.54 50.199 167.254 50.3865 167.864 50.7615C168.473 51.1365 168.947 51.663 169.284 52.3411C169.621 53.0191 169.79 53.8108 169.79 54.7161C169.79 55.6176 169.621 56.4054 169.284 57.0797C168.947 57.7539 168.473 58.2786 167.864 58.6536C167.254 59.0286 166.54 59.2161 165.722 59.2161ZM165.727 57.7899C166.257 57.7899 166.697 57.6498 167.045 57.3695C167.394 57.0892 167.651 56.7161 167.818 56.2501C167.989 55.7842 168.074 55.271 168.074 54.7104C168.074 54.1536 167.989 53.6422 167.818 53.1763C167.651 52.7066 167.394 52.3297 167.045 52.0456C166.697 51.7615 166.257 51.6195 165.727 51.6195C165.193 51.6195 164.75 51.7615 164.398 52.0456C164.049 52.3297 163.79 52.7066 163.619 53.1763C163.453 53.6422 163.369 54.1536 163.369 54.7104C163.369 55.271 163.453 55.7842 163.619 56.2501C163.79 56.7161 164.049 57.0892 164.398 57.3695C164.75 57.6498 165.193 57.7899 165.727 57.7899ZM175.839 50.3126V51.6763H170.908V50.3126H175.839ZM172.26 59.0399V49.3013C172.26 48.7558 172.379 48.3032 172.618 47.9433C172.856 47.5797 173.173 47.3089 173.567 47.1308C173.961 46.949 174.389 46.8581 174.851 46.8581C175.192 46.8581 175.483 46.8865 175.726 46.9433C175.968 46.9964 176.148 47.0456 176.266 47.0911L175.868 48.4661C175.788 48.4433 175.686 48.4168 175.561 48.3865C175.436 48.3524 175.284 48.3354 175.106 48.3354C174.694 48.3354 174.398 48.4376 174.22 48.6422C174.046 48.8467 173.959 49.1422 173.959 49.5286V59.0399H172.26ZM181.56 56.7672V55.3467L186.588 47.4036H187.707V49.4945H186.997L183.4 55.1876V55.2786H190.293V56.7672H181.56ZM187.077 59.0399V56.3354L187.088 55.6876V47.4036H188.753V59.0399H187.077ZM196.142 47.2445C196.661 47.2483 197.172 47.3429 197.676 47.5286C198.18 47.7142 198.634 48.0172 199.04 48.4376C199.449 48.8581 199.775 49.4263 200.017 50.1422C200.263 50.8543 200.388 51.7407 200.392 52.8013C200.392 53.8202 200.29 54.7274 200.085 55.5229C199.881 56.3145 199.587 56.9831 199.204 57.5286C198.826 58.074 198.365 58.4888 197.824 58.7729C197.282 59.057 196.672 59.199 195.994 59.199C195.301 59.199 194.686 59.0626 194.148 58.7899C193.61 58.5172 193.172 58.1403 192.835 57.6592C192.498 57.1744 192.288 56.6176 192.204 55.9888H193.937C194.051 56.4888 194.282 56.8941 194.631 57.2047C194.983 57.5115 195.437 57.6649 195.994 57.6649C196.847 57.6649 197.511 57.2937 197.989 56.5513C198.466 55.8051 198.706 54.7634 198.71 53.4263H198.619C198.422 53.752 198.176 54.0323 197.881 54.2672C197.589 54.502 197.261 54.6839 196.898 54.8126C196.534 54.9414 196.146 55.0058 195.733 55.0058C195.062 55.0058 194.453 54.8411 193.903 54.5115C193.354 54.182 192.917 53.7293 192.591 53.1536C192.265 52.5778 192.102 51.9206 192.102 51.182C192.102 50.4471 192.269 49.7804 192.602 49.182C192.939 48.5835 193.409 48.11 194.011 47.7615C194.617 47.4092 195.328 47.2369 196.142 47.2445ZM196.148 48.7217C195.704 48.7217 195.305 48.8316 194.949 49.0513C194.597 49.2672 194.318 49.5608 194.114 49.932C193.909 50.2994 193.807 50.7085 193.807 51.1592C193.807 51.61 193.905 52.0191 194.102 52.3865C194.303 52.7501 194.576 53.0399 194.92 53.2558C195.269 53.4679 195.667 53.574 196.114 53.574C196.447 53.574 196.757 53.5096 197.045 53.3808C197.333 53.252 197.585 53.074 197.801 52.8467C198.017 52.6157 198.186 52.3543 198.307 52.0626C198.428 51.771 198.489 51.4642 198.489 51.1422C198.489 50.7142 198.386 50.3164 198.182 49.949C197.981 49.5816 197.704 49.2861 197.352 49.0626C197 48.8354 196.598 48.7217 196.148 48.7217ZM209.763 51.4831L209.223 52.6536H201.751L202.177 51.4831H209.763ZM208.746 53.7899L208.195 54.9717H201.751L202.177 53.7899H208.746ZM211.149 48.3979L210.479 49.8354C210.266 49.6536 210.035 49.4888 209.785 49.3411C209.535 49.1933 209.266 49.0759 208.979 48.9888C208.691 48.8979 208.382 48.8524 208.052 48.8524C207.446 48.8524 206.907 49.0153 206.433 49.3411C205.96 49.6668 205.587 50.1554 205.314 50.807C205.045 51.4547 204.91 52.2615 204.91 53.2274C204.91 54.1933 205.045 55.0001 205.314 55.6479C205.587 56.2956 205.96 56.7823 206.433 57.1081C206.907 57.4301 207.446 57.5911 208.052 57.5911C208.386 57.5911 208.696 57.5475 208.984 57.4604C209.276 57.3733 209.541 57.2596 209.78 57.1195C210.022 56.9755 210.24 56.824 210.433 56.6649L211.121 58.0967C210.719 58.4604 210.253 58.735 209.723 58.9206C209.193 59.1062 208.636 59.199 208.052 59.199C207.102 59.199 206.259 58.9585 205.524 58.4774C204.793 57.9964 204.219 57.3108 203.802 56.4206C203.386 55.5267 203.177 54.4623 203.177 53.2274C203.177 51.9888 203.386 50.9225 203.802 50.0286C204.219 49.1346 204.793 48.4471 205.524 47.9661C206.259 47.485 207.102 47.2445 208.052 47.2445C208.659 47.2445 209.223 47.3448 209.746 47.5456C210.268 47.7426 210.736 48.0267 211.149 48.3979ZM219.15 53.8581V59.0399H217.452V47.4036H219.128V51.7331H219.236C219.44 51.2634 219.753 50.8903 220.173 50.6138C220.594 50.3373 221.143 50.199 221.821 50.199C222.419 50.199 222.942 50.3221 223.389 50.5683C223.84 50.8145 224.188 51.182 224.435 51.6706C224.685 52.1554 224.81 52.7615 224.81 53.4888V59.0399H223.111V53.6933C223.111 53.0532 222.946 52.557 222.616 52.2047C222.287 51.8486 221.829 51.6706 221.241 51.6706C220.84 51.6706 220.48 51.7558 220.162 51.9263C219.847 52.0967 219.599 52.3467 219.418 52.6763C219.239 53.002 219.15 53.396 219.15 53.8581ZM229.616 59.2331C229.063 59.2331 228.563 59.1308 228.116 58.9263C227.669 58.7179 227.315 58.4168 227.054 58.0229C226.796 57.6289 226.668 57.146 226.668 56.574C226.668 56.0816 226.762 55.6763 226.952 55.3581C227.141 55.0399 227.397 54.788 227.719 54.6024C228.041 54.4168 228.4 54.2767 228.798 54.182C229.196 54.0873 229.601 54.0153 230.014 53.9661C230.537 53.9054 230.961 53.8562 231.287 53.8183C231.613 53.7767 231.849 53.7104 231.997 53.6195C232.145 53.5286 232.219 53.3808 232.219 53.1763V53.1365C232.219 52.6403 232.079 52.2558 231.798 51.9831C231.522 51.7104 231.109 51.574 230.56 51.574C229.988 51.574 229.537 51.7009 229.207 51.9547C228.882 52.2047 228.656 52.4831 228.531 52.7899L226.935 52.4263C227.124 51.896 227.4 51.4679 227.764 51.1422C228.132 50.8126 228.554 50.574 229.031 50.4263C229.508 50.2748 230.01 50.199 230.537 50.199C230.885 50.199 231.255 50.2407 231.645 50.324C232.039 50.4036 232.406 50.5513 232.747 50.7672C233.092 50.9831 233.374 51.2918 233.594 51.6933C233.813 52.0911 233.923 52.6081 233.923 53.2445V59.0399H232.264V57.8467H232.196C232.086 58.0664 231.921 58.2823 231.702 58.4945C231.482 58.7066 231.2 58.8827 230.855 59.0229C230.51 59.163 230.097 59.2331 229.616 59.2331ZM229.986 57.8695C230.455 57.8695 230.857 57.7767 231.19 57.5911C231.527 57.4054 231.783 57.163 231.957 56.8638C232.135 56.5608 232.224 56.2369 232.224 55.8922V54.7672C232.164 54.8278 232.046 54.8846 231.872 54.9376C231.702 54.9869 231.507 55.0304 231.287 55.0683C231.067 55.1024 230.853 55.1346 230.645 55.1649C230.436 55.1914 230.262 55.2142 230.122 55.2331C229.793 55.2748 229.491 55.3448 229.219 55.4433C228.95 55.5418 228.734 55.6839 228.571 55.8695C228.412 56.0513 228.332 56.2937 228.332 56.5967C228.332 57.0172 228.488 57.3354 228.798 57.5513C229.109 57.7634 229.505 57.8695 229.986 57.8695ZM242.726 52.4433L241.186 52.7161C241.122 52.5191 241.019 52.3316 240.879 52.1536C240.743 51.9755 240.557 51.8297 240.322 51.7161C240.088 51.6024 239.794 51.5456 239.442 51.5456C238.961 51.5456 238.559 51.6536 238.237 51.8695C237.915 52.0816 237.754 52.3562 237.754 52.6933C237.754 52.985 237.862 53.2198 238.078 53.3979C238.294 53.5759 238.642 53.7217 239.123 53.8354L240.51 54.1536C241.313 54.3392 241.911 54.6251 242.305 55.0115C242.699 55.3979 242.896 55.8998 242.896 56.5172C242.896 57.0399 242.745 57.5058 242.442 57.9149C242.142 58.3202 241.724 58.6384 241.186 58.8695C240.652 59.1005 240.033 59.2161 239.328 59.2161C238.351 59.2161 237.553 59.0077 236.936 58.5911C236.319 58.1706 235.94 57.574 235.8 56.8013L237.442 56.5513C237.544 56.9793 237.754 57.3032 238.072 57.5229C238.391 57.7388 238.805 57.8467 239.317 57.8467C239.873 57.8467 240.319 57.7312 240.652 57.5001C240.985 57.2653 241.152 56.9793 241.152 56.6422C241.152 56.3695 241.05 56.1403 240.845 55.9547C240.644 55.7691 240.336 55.6289 239.919 55.5342L238.442 55.2104C237.627 55.0248 237.025 54.7293 236.635 54.324C236.248 53.9187 236.055 53.4054 236.055 52.7842C236.055 52.2691 236.199 51.8183 236.487 51.432C236.775 51.0456 237.173 50.7445 237.68 50.5286C238.188 50.3089 238.769 50.199 239.425 50.199C240.368 50.199 241.11 50.4036 241.652 50.8126C242.194 51.2179 242.552 51.7615 242.726 52.4433ZM249.135 59.0399V47.4036H250.834V51.7274H250.936C251.034 51.5456 251.177 51.3354 251.362 51.0967C251.548 50.8581 251.805 50.6498 252.135 50.4717C252.464 50.2899 252.9 50.199 253.442 50.199C254.146 50.199 254.775 50.377 255.328 50.7331C255.881 51.0892 256.315 51.6024 256.629 52.2729C256.947 52.9433 257.106 53.7501 257.106 54.6933C257.106 55.6365 256.949 56.4452 256.635 57.1195C256.32 57.7899 255.889 58.307 255.339 58.6706C254.79 59.0304 254.163 59.2104 253.459 59.2104C252.928 59.2104 252.495 59.1214 252.158 58.9433C251.824 58.7653 251.563 58.557 251.373 58.3183C251.184 58.0797 251.038 57.8676 250.936 57.682H250.794V59.0399H249.135ZM250.8 54.6763C250.8 55.2899 250.889 55.8278 251.067 56.2899C251.245 56.752 251.502 57.1138 251.839 57.3751C252.177 57.6327 252.589 57.7615 253.078 57.7615C253.586 57.7615 254.01 57.627 254.351 57.3581C254.692 57.0854 254.949 56.7161 255.123 56.2501C255.302 55.7842 255.391 55.2596 255.391 54.6763C255.391 54.1005 255.303 53.5835 255.129 53.1251C254.959 52.6668 254.701 52.3051 254.356 52.0399C254.016 51.7748 253.589 51.6422 253.078 51.6422C252.586 51.6422 252.169 51.7691 251.828 52.0229C251.491 52.2767 251.235 52.6308 251.061 53.0854C250.887 53.5399 250.8 54.0702 250.8 54.6763ZM262.775 59.2161C261.916 59.2161 261.175 59.0323 260.554 58.6649C259.936 58.2937 259.459 57.7729 259.122 57.1024C258.789 56.4282 258.622 55.6384 258.622 54.7331C258.622 53.8392 258.789 53.0513 259.122 52.3695C259.459 51.6876 259.929 51.1554 260.531 50.7729C261.137 50.3903 261.846 50.199 262.656 50.199C263.149 50.199 263.626 50.2804 264.088 50.4433C264.55 50.6062 264.965 50.8619 265.332 51.2104C265.7 51.5589 265.989 52.0115 266.202 52.5683C266.414 53.1214 266.52 53.7937 266.52 54.5854V55.1876H259.582V53.9149H264.855C264.855 53.4679 264.764 53.0721 264.582 52.7274C264.4 52.3789 264.145 52.1043 263.815 51.9036C263.489 51.7028 263.107 51.6024 262.668 51.6024C262.19 51.6024 261.774 51.7198 261.418 51.9547C261.065 52.1858 260.793 52.4888 260.599 52.8638C260.41 53.235 260.315 53.6384 260.315 54.074V55.0683C260.315 55.6517 260.418 56.1479 260.622 56.557C260.83 56.9661 261.12 57.2786 261.491 57.4945C261.863 57.7066 262.296 57.8126 262.793 57.8126C263.114 57.8126 263.408 57.7672 263.673 57.6763C263.938 57.5816 264.168 57.4414 264.361 57.2558C264.554 57.0702 264.702 56.8411 264.804 56.5683L266.412 56.8581C266.283 57.3316 266.052 57.7464 265.719 58.1024C265.389 58.4547 264.974 58.7293 264.474 58.9263C263.978 59.1195 263.412 59.2161 262.775 59.2161ZM272.166 59.2161C271.306 59.2161 270.566 59.0323 269.945 58.6649C269.327 58.2937 268.85 57.7729 268.513 57.1024C268.179 56.4282 268.013 55.6384 268.013 54.7331C268.013 53.8392 268.179 53.0513 268.513 52.3695C268.85 51.6876 269.32 51.1554 269.922 50.7729C270.528 50.3903 271.236 50.199 272.047 50.199C272.539 50.199 273.016 50.2804 273.479 50.4433C273.941 50.6062 274.355 50.8619 274.723 51.2104C275.09 51.5589 275.38 52.0115 275.592 52.5683C275.804 53.1214 275.91 53.7937 275.91 54.5854V55.1876H268.973V53.9149H274.246C274.246 53.4679 274.155 53.0721 273.973 52.7274C273.791 52.3789 273.535 52.1043 273.206 51.9036C272.88 51.7028 272.498 51.6024 272.058 51.6024C271.581 51.6024 271.164 51.7198 270.808 51.9547C270.456 52.1858 270.183 52.4888 269.99 52.8638C269.801 53.235 269.706 53.6384 269.706 54.074V55.0683C269.706 55.6517 269.808 56.1479 270.013 56.557C270.221 56.9661 270.511 57.2786 270.882 57.4945C271.253 57.7066 271.687 57.8126 272.183 57.8126C272.505 57.8126 272.799 57.7672 273.064 57.6763C273.329 57.5816 273.558 57.4414 273.751 57.2558C273.945 57.0702 274.092 56.8411 274.195 56.5683L275.802 56.8581C275.674 57.3316 275.443 57.7464 275.109 58.1024C274.78 58.4547 274.365 58.7293 273.865 58.9263C273.369 59.1195 272.802 59.2161 272.166 59.2161ZM279.494 53.8581V59.0399H277.795V50.3126H279.426V51.7331H279.534C279.735 51.271 280.049 50.8998 280.477 50.6195C280.909 50.3392 281.453 50.199 282.108 50.199C282.703 50.199 283.223 50.324 283.67 50.574C284.117 50.8202 284.464 51.1876 284.71 51.6763C284.956 52.1649 285.079 52.7691 285.079 53.4888V59.0399H283.381V53.6933C283.381 53.0608 283.216 52.5664 282.886 52.2104C282.557 51.8505 282.104 51.6706 281.528 51.6706C281.134 51.6706 280.784 51.7558 280.477 51.9263C280.174 52.0967 279.934 52.3467 279.756 52.6763C279.581 53.002 279.494 53.396 279.494 53.8581ZM291.592 62.3126V50.3126H293.251V51.7274H293.393C293.492 51.5456 293.634 51.3354 293.82 51.0967C294.005 50.8581 294.263 50.6498 294.592 50.4717C294.922 50.2899 295.357 50.199 295.899 50.199C296.604 50.199 297.232 50.377 297.785 50.7331C298.338 51.0892 298.772 51.6024 299.087 52.2729C299.405 52.9433 299.564 53.7501 299.564 54.6933C299.564 55.6365 299.407 56.4452 299.092 57.1195C298.778 57.7899 298.346 58.307 297.797 58.6706C297.248 59.0304 296.621 59.2104 295.916 59.2104C295.386 59.2104 294.952 59.1214 294.615 58.9433C294.282 58.7653 294.02 58.557 293.831 58.3183C293.641 58.0797 293.496 57.8676 293.393 57.682H293.291V62.3126H291.592ZM293.257 54.6763C293.257 55.2899 293.346 55.8278 293.524 56.2899C293.702 56.752 293.96 57.1138 294.297 57.3751C294.634 57.6327 295.047 57.7615 295.535 57.7615C296.043 57.7615 296.467 57.627 296.808 57.3581C297.149 57.0854 297.407 56.7161 297.581 56.2501C297.759 55.7842 297.848 55.2596 297.848 54.6763C297.848 54.1005 297.761 53.5835 297.587 53.1251C297.416 52.6668 297.159 52.3051 296.814 52.0399C296.473 51.7748 296.047 51.6422 295.535 51.6422C295.043 51.6422 294.626 51.7691 294.285 52.0229C293.948 52.2767 293.693 52.6308 293.518 53.0854C293.344 53.5399 293.257 54.0702 293.257 54.6763ZM301.467 59.0399V50.3126H303.109V51.699H303.2C303.359 51.2293 303.64 50.86 304.041 50.5911C304.446 50.3183 304.905 50.182 305.416 50.182C305.522 50.182 305.647 50.1858 305.791 50.1933C305.939 50.2009 306.054 50.2104 306.138 50.2217V51.8467C306.07 51.8278 305.948 51.807 305.774 51.7842C305.6 51.7577 305.426 51.7445 305.251 51.7445C304.85 51.7445 304.492 51.8297 304.177 52.0001C303.867 52.1668 303.621 52.3998 303.439 52.699C303.257 52.9945 303.166 53.3316 303.166 53.7104V59.0399H301.467ZM310.972 59.2161C310.153 59.2161 309.439 59.0286 308.829 58.6536C308.22 58.2786 307.746 57.7539 307.409 57.0797C307.072 56.4054 306.903 55.6176 306.903 54.7161C306.903 53.8108 307.072 53.0191 307.409 52.3411C307.746 51.663 308.22 51.1365 308.829 50.7615C309.439 50.3865 310.153 50.199 310.972 50.199C311.79 50.199 312.504 50.3865 313.114 50.7615C313.723 51.1365 314.197 51.663 314.534 52.3411C314.871 53.0191 315.04 53.8108 315.04 54.7161C315.04 55.6176 314.871 56.4054 314.534 57.0797C314.197 57.7539 313.723 58.2786 313.114 58.6536C312.504 59.0286 311.79 59.2161 310.972 59.2161ZM310.977 57.7899C311.507 57.7899 311.947 57.6498 312.295 57.3695C312.644 57.0892 312.901 56.7161 313.068 56.2501C313.239 55.7842 313.324 55.271 313.324 54.7104C313.324 54.1536 313.239 53.6422 313.068 53.1763C312.901 52.7066 312.644 52.3297 312.295 52.0456C311.947 51.7615 311.507 51.6195 310.977 51.6195C310.443 51.6195 310 51.7615 309.648 52.0456C309.299 52.3297 309.04 52.7066 308.869 53.1763C308.703 53.6422 308.619 54.1536 308.619 54.7104C308.619 55.271 308.703 55.7842 308.869 56.2501C309.04 56.7161 309.299 57.0892 309.648 57.3695C310 57.6498 310.443 57.7899 310.977 57.7899ZM320.612 59.2161C319.767 59.2161 319.04 59.0248 318.43 58.6422C317.824 58.2558 317.358 57.7236 317.033 57.0456C316.707 56.3676 316.544 55.5911 316.544 54.7161C316.544 53.8297 316.711 53.0475 317.044 52.3695C317.377 51.6876 317.847 51.1554 318.453 50.7729C319.059 50.3903 319.773 50.199 320.595 50.199C321.258 50.199 321.849 50.3221 322.368 50.5683C322.887 50.8108 323.305 51.1517 323.623 51.5911C323.945 52.0304 324.137 52.5437 324.197 53.1308H322.544C322.453 52.7217 322.245 52.3695 321.919 52.074C321.597 51.7786 321.165 51.6308 320.623 51.6308C320.15 51.6308 319.735 51.7558 319.379 52.0058C319.027 52.252 318.752 52.6043 318.555 53.0626C318.358 53.5172 318.26 54.0551 318.26 54.6763C318.26 55.3126 318.356 55.8619 318.55 56.324C318.743 56.7861 319.016 57.1441 319.368 57.3979C319.724 57.6517 320.142 57.7786 320.623 57.7786C320.945 57.7786 321.237 57.7198 321.498 57.6024C321.764 57.4812 321.985 57.3089 322.163 57.0854C322.345 56.8619 322.472 56.5929 322.544 56.2786H324.197C324.137 56.8429 323.953 57.3467 323.646 57.7899C323.339 58.2331 322.928 58.5816 322.413 58.8354C321.902 59.0892 321.302 59.2161 320.612 59.2161ZM329.775 59.2161C328.916 59.2161 328.175 59.0323 327.554 58.6649C326.936 58.2937 326.459 57.7729 326.122 57.1024C325.789 56.4282 325.622 55.6384 325.622 54.7331C325.622 53.8392 325.789 53.0513 326.122 52.3695C326.459 51.6876 326.929 51.1554 327.531 50.7729C328.137 50.3903 328.846 50.199 329.656 50.199C330.149 50.199 330.626 50.2804 331.088 50.4433C331.55 50.6062 331.965 50.8619 332.332 51.2104C332.7 51.5589 332.989 52.0115 333.202 52.5683C333.414 53.1214 333.52 53.7937 333.52 54.5854V55.1876H326.582V53.9149H331.855C331.855 53.4679 331.764 53.0721 331.582 52.7274C331.4 52.3789 331.145 52.1043 330.815 51.9036C330.489 51.7028 330.107 51.6024 329.668 51.6024C329.19 51.6024 328.774 51.7198 328.418 51.9547C328.065 52.1858 327.793 52.4888 327.599 52.8638C327.41 53.235 327.315 53.6384 327.315 54.074V55.0683C327.315 55.6517 327.418 56.1479 327.622 56.557C327.83 56.9661 328.12 57.2786 328.491 57.4945C328.863 57.7066 329.296 57.8126 329.793 57.8126C330.114 57.8126 330.408 57.7672 330.673 57.6763C330.938 57.5816 331.168 57.4414 331.361 57.2558C331.554 57.0702 331.702 56.8411 331.804 56.5683L333.412 56.8581C333.283 57.3316 333.052 57.7464 332.719 58.1024C332.389 58.4547 331.974 58.7293 331.474 58.9263C330.978 59.1195 330.412 59.2161 329.775 59.2161ZM341.945 52.4433L340.405 52.7161C340.34 52.5191 340.238 52.3316 340.098 52.1536C339.962 51.9755 339.776 51.8297 339.541 51.7161C339.306 51.6024 339.013 51.5456 338.66 51.5456C338.179 51.5456 337.778 51.6536 337.456 51.8695C337.134 52.0816 336.973 52.3562 336.973 52.6933C336.973 52.985 337.081 53.2198 337.297 53.3979C337.513 53.5759 337.861 53.7217 338.342 53.8354L339.729 54.1536C340.532 54.3392 341.13 54.6251 341.524 55.0115C341.918 55.3979 342.115 55.8998 342.115 56.5172C342.115 57.0399 341.963 57.5058 341.66 57.9149C341.361 58.3202 340.943 58.6384 340.405 58.8695C339.871 59.1005 339.251 59.2161 338.547 59.2161C337.57 59.2161 336.772 59.0077 336.155 58.5911C335.537 58.1706 335.159 57.574 335.018 56.8013L336.66 56.5513C336.763 56.9793 336.973 57.3032 337.291 57.5229C337.609 57.7388 338.024 57.8467 338.535 57.8467C339.092 57.8467 339.537 57.7312 339.871 57.5001C340.204 57.2653 340.371 56.9793 340.371 56.6422C340.371 56.3695 340.268 56.1403 340.064 55.9547C339.863 55.7691 339.554 55.6289 339.138 55.5342L337.66 55.2104C336.846 55.0248 336.244 54.7293 335.854 54.324C335.467 53.9187 335.274 53.4054 335.274 52.7842C335.274 52.2691 335.418 51.8183 335.706 51.432C335.994 51.0456 336.391 50.7445 336.899 50.5286C337.407 50.3089 337.988 50.199 338.643 50.199C339.587 50.199 340.329 50.4036 340.871 50.8126C341.412 51.2179 341.77 51.7615 341.945 52.4433ZM350.523 52.4433L348.983 52.7161C348.918 52.5191 348.816 52.3316 348.676 52.1536C348.54 51.9755 348.354 51.8297 348.119 51.7161C347.884 51.6024 347.591 51.5456 347.239 51.5456C346.757 51.5456 346.356 51.6536 346.034 51.8695C345.712 52.0816 345.551 52.3562 345.551 52.6933C345.551 52.985 345.659 53.2198 345.875 53.3979C346.091 53.5759 346.439 53.7217 346.92 53.8354L348.307 54.1536C349.11 54.3392 349.708 54.6251 350.102 55.0115C350.496 55.3979 350.693 55.8998 350.693 56.5172C350.693 57.0399 350.542 57.5058 350.239 57.9149C349.939 58.3202 349.521 58.6384 348.983 58.8695C348.449 59.1005 347.829 59.2161 347.125 59.2161C346.148 59.2161 345.35 59.0077 344.733 58.5911C344.115 58.1706 343.737 57.574 343.597 56.8013L345.239 56.5513C345.341 56.9793 345.551 57.3032 345.869 57.5229C346.187 57.7388 346.602 57.8467 347.114 57.8467C347.67 57.8467 348.115 57.7312 348.449 57.5001C348.782 57.2653 348.949 56.9793 348.949 56.6422C348.949 56.3695 348.847 56.1403 348.642 55.9547C348.441 55.7691 348.132 55.6289 347.716 55.5342L346.239 55.2104C345.424 55.0248 344.822 54.7293 344.432 54.324C344.045 53.9187 343.852 53.4054 343.852 52.7842C343.852 52.2691 343.996 51.8183 344.284 51.432C344.572 51.0456 344.97 50.7445 345.477 50.5286C345.985 50.3089 346.566 50.199 347.222 50.199C348.165 50.199 348.907 50.4036 349.449 50.8126C349.99 51.2179 350.348 51.7615 350.523 52.4433ZM356.322 59.2161C355.463 59.2161 354.722 59.0323 354.101 58.6649C353.483 58.2937 353.006 57.7729 352.669 57.1024C352.336 56.4282 352.169 55.6384 352.169 54.7331C352.169 53.8392 352.336 53.0513 352.669 52.3695C353.006 51.6876 353.476 51.1554 354.078 50.7729C354.684 50.3903 355.392 50.199 356.203 50.199C356.695 50.199 357.173 50.2804 357.635 50.4433C358.097 50.6062 358.512 50.8619 358.879 51.2104C359.247 51.5589 359.536 52.0115 359.748 52.5683C359.961 53.1214 360.067 53.7937 360.067 54.5854V55.1876H353.129V53.9149H358.402C358.402 53.4679 358.311 53.0721 358.129 52.7274C357.947 52.3789 357.692 52.1043 357.362 51.9036C357.036 51.7028 356.654 51.6024 356.214 51.6024C355.737 51.6024 355.32 51.7198 354.964 51.9547C354.612 52.1858 354.339 52.4888 354.146 52.8638C353.957 53.235 353.862 53.6384 353.862 54.074V55.0683C353.862 55.6517 353.964 56.1479 354.169 56.557C354.377 56.9661 354.667 57.2786 355.038 57.4945C355.409 57.7066 355.843 57.8126 356.339 57.8126C356.661 57.8126 356.955 57.7672 357.22 57.6763C357.485 57.5816 357.714 57.4414 357.908 57.2558C358.101 57.0702 358.248 56.8411 358.351 56.5683L359.959 56.8581C359.83 57.3316 359.599 57.7464 359.266 58.1024C358.936 58.4547 358.521 58.7293 358.021 58.9263C357.525 59.1195 356.959 59.2161 356.322 59.2161ZM365.219 59.2104C364.514 59.2104 363.885 59.0304 363.332 58.6706C362.783 58.307 362.351 57.7899 362.037 57.1195C361.726 56.4452 361.571 55.6365 361.571 54.6933C361.571 53.7501 361.728 52.9433 362.043 52.2729C362.361 51.6024 362.796 51.0892 363.349 50.7331C363.902 50.377 364.529 50.199 365.23 50.199C365.772 50.199 366.207 50.2899 366.537 50.4717C366.87 50.6498 367.128 50.8581 367.31 51.0967C367.495 51.3354 367.639 51.5456 367.741 51.7274H367.844V47.4036H369.543V59.0399H367.883V57.682H367.741C367.639 57.8676 367.491 58.0797 367.298 58.3183C367.109 58.557 366.847 58.7653 366.514 58.9433C366.181 59.1214 365.749 59.2104 365.219 59.2104ZM365.594 57.7615C366.082 57.7615 366.495 57.6327 366.832 57.3751C367.173 57.1138 367.431 56.752 367.605 56.2899C367.783 55.8278 367.872 55.2899 367.872 54.6763C367.872 54.0702 367.785 53.5399 367.611 53.0854C367.436 52.6308 367.181 52.2767 366.844 52.0229C366.507 51.7691 366.09 51.6422 365.594 51.6422C365.082 51.6422 364.656 51.7748 364.315 52.0399C363.974 52.3051 363.717 52.6668 363.543 53.1251C363.372 53.5835 363.287 54.1005 363.287 54.6763C363.287 55.2596 363.374 55.7842 363.548 56.2501C363.722 56.7161 363.98 57.0854 364.321 57.3581C364.666 57.627 365.09 57.7615 365.594 57.7615ZM374.109 47.4036L373.962 55.6933H372.388L372.24 47.4036H374.109ZM373.177 59.1479C372.863 59.1479 372.594 59.038 372.371 58.8183C372.147 58.5948 372.037 58.3259 372.041 58.0115C372.037 57.7009 372.147 57.4358 372.371 57.2161C372.594 56.9926 372.863 56.8808 373.177 56.8808C373.484 56.8808 373.749 56.9926 373.973 57.2161C374.196 57.4358 374.31 57.7009 374.314 58.0115C374.31 58.2198 374.255 58.4111 374.149 58.5854C374.047 58.7558 373.91 58.8922 373.74 58.9945C373.57 59.0967 373.382 59.1479 373.177 59.1479Z" fill="#1A191E"/>
<rect x="0.74707" y="98" width="498.753" height="82" rx="10" fill="#F8F8F8"/>
<rect x="16.7471" y="114" width="50" height="50" rx="10" fill="#FFC727"/>
<path d="M84.1037 131V117.035H86.6573V122.84H92.9216V117.035H95.4753V131H92.9216V124.915H86.6573V131H84.1037ZM102.279 131.239C101.322 131.239 100.457 131.02 99.6858 130.581C98.9277 130.142 98.3226 129.537 97.8704 128.766C97.4315 127.981 97.212 127.076 97.212 126.052C97.212 125.028 97.4381 124.131 97.8903 123.359C98.3425 122.574 98.9477 121.963 99.7058 121.524C100.477 121.085 101.342 120.865 102.299 120.865C103.244 120.865 104.095 121.085 104.853 121.524C105.624 121.963 106.229 122.574 106.668 123.359C107.121 124.131 107.347 125.028 107.347 126.052C107.347 127.076 107.121 127.981 106.668 128.766C106.229 129.537 105.624 130.142 104.853 130.581C104.081 131.02 103.224 131.239 102.279 131.239ZM102.279 129.025C102.944 129.025 103.523 128.779 104.015 128.287C104.507 127.781 104.753 127.037 104.753 126.052C104.753 125.068 104.507 124.33 104.015 123.838C103.523 123.333 102.951 123.08 102.299 123.08C101.621 123.08 101.036 123.333 100.544 123.838C100.065 124.33 99.8255 125.068 99.8255 126.052C99.8255 127.037 100.065 127.781 100.544 128.287C101.036 128.779 101.614 129.025 102.279 129.025ZM109.031 131V121.105H111.286L111.505 122.441C111.824 121.963 112.243 121.584 112.762 121.304C113.294 121.012 113.906 120.865 114.597 120.865C116.127 120.865 117.211 121.457 117.849 122.641C118.208 122.096 118.687 121.663 119.286 121.344C119.898 121.025 120.563 120.865 121.281 120.865C122.571 120.865 123.562 121.251 124.253 122.022C124.945 122.794 125.291 123.924 125.291 125.414V131H122.737V125.653C122.737 124.802 122.571 124.15 122.238 123.698C121.919 123.246 121.42 123.02 120.742 123.02C120.05 123.02 119.492 123.273 119.066 123.778C118.654 124.283 118.448 124.988 118.448 125.893V131H115.894V125.653C115.894 124.802 115.728 124.15 115.395 123.698C115.063 123.246 114.551 123.02 113.859 123.02C113.181 123.02 112.629 123.273 112.203 123.778C111.791 124.283 111.585 124.988 111.585 125.893V131H109.031ZM131.925 131.239C130.927 131.239 130.043 131.027 129.271 130.601C128.5 130.175 127.895 129.577 127.456 128.805C127.017 128.034 126.797 127.143 126.797 126.132C126.797 125.108 127.01 124.197 127.436 123.399C127.875 122.601 128.473 121.983 129.231 121.544C130.003 121.091 130.907 120.865 131.945 120.865C132.915 120.865 133.773 121.078 134.518 121.504C135.263 121.929 135.841 122.515 136.254 123.259C136.679 123.991 136.892 124.809 136.892 125.713C136.892 125.86 136.886 126.012 136.872 126.172C136.872 126.332 136.866 126.498 136.852 126.671H129.331C129.384 127.442 129.65 128.047 130.129 128.486C130.621 128.925 131.213 129.145 131.905 129.145C132.423 129.145 132.856 129.032 133.201 128.805C133.561 128.566 133.827 128.26 133.999 127.888H136.593C136.407 128.513 136.094 129.085 135.655 129.603C135.23 130.109 134.698 130.508 134.059 130.8C133.434 131.093 132.723 131.239 131.925 131.239ZM131.945 122.94C131.319 122.94 130.767 123.12 130.289 123.479C129.81 123.825 129.504 124.357 129.371 125.075H134.299C134.259 124.423 134.019 123.904 133.58 123.519C133.142 123.133 132.596 122.94 131.945 122.94ZM138.441 131V121.105H140.716L140.955 122.96C141.314 122.322 141.8 121.816 142.412 121.444C143.037 121.058 143.768 120.865 144.606 120.865V123.559H143.888C143.329 123.559 142.83 123.645 142.392 123.818C141.953 123.991 141.607 124.29 141.354 124.716C141.115 125.141 140.995 125.733 140.995 126.491V131H138.441ZM149.968 131V117.035H158.985V119.09H152.522V123H157.748V125.015H152.522V131H149.968ZM164.52 131.239C163.562 131.239 162.698 131.02 161.926 130.581C161.168 130.142 160.563 129.537 160.111 128.766C159.672 127.981 159.452 127.076 159.452 126.052C159.452 125.028 159.679 124.131 160.131 123.359C160.583 122.574 161.188 121.963 161.946 121.524C162.718 121.085 163.582 120.865 164.54 120.865C165.484 120.865 166.335 121.085 167.093 121.524C167.865 121.963 168.47 122.574 168.909 123.359C169.361 124.131 169.587 125.028 169.587 126.052C169.587 127.076 169.361 127.981 168.909 128.766C168.47 129.537 167.865 130.142 167.093 130.581C166.322 131.02 165.464 131.239 164.52 131.239ZM164.52 129.025C165.185 129.025 165.763 128.779 166.255 128.287C166.748 127.781 166.994 127.037 166.994 126.052C166.994 125.068 166.748 124.33 166.255 123.838C165.763 123.333 165.191 123.08 164.54 123.08C163.861 123.08 163.276 123.333 162.784 123.838C162.305 124.33 162.066 125.068 162.066 126.052C162.066 127.037 162.305 127.781 162.784 128.287C163.276 128.779 163.855 129.025 164.52 129.025ZM176.02 131.239C175.062 131.239 174.198 131.02 173.426 130.581C172.668 130.142 172.063 129.537 171.611 128.766C171.172 127.981 170.953 127.076 170.953 126.052C170.953 125.028 171.179 124.131 171.631 123.359C172.083 122.574 172.688 121.963 173.446 121.524C174.218 121.085 175.082 120.865 176.04 120.865C176.984 120.865 177.835 121.085 178.594 121.524C179.365 121.963 179.97 122.574 180.409 123.359C180.861 124.131 181.087 125.028 181.087 126.052C181.087 127.076 180.861 127.981 180.409 128.766C179.97 129.537 179.365 130.142 178.594 130.581C177.822 131.02 176.964 131.239 176.02 131.239ZM176.02 129.025C176.685 129.025 177.264 128.779 177.756 128.287C178.248 127.781 178.494 127.037 178.494 126.052C178.494 125.068 178.248 124.33 177.756 123.838C177.264 123.333 176.692 123.08 176.04 123.08C175.362 123.08 174.776 123.333 174.284 123.838C173.806 124.33 173.566 125.068 173.566 126.052C173.566 127.037 173.806 127.781 174.284 128.287C174.776 128.779 175.355 129.025 176.02 129.025ZM187.321 131.239C186.39 131.239 185.558 131.013 184.827 130.561C184.095 130.109 183.517 129.49 183.091 128.706C182.666 127.921 182.453 127.03 182.453 126.032C182.453 125.035 182.666 124.15 183.091 123.379C183.517 122.594 184.095 121.983 184.827 121.544C185.558 121.091 186.39 120.865 187.321 120.865C188.065 120.865 188.717 121.005 189.276 121.284C189.834 121.564 190.287 121.956 190.632 122.461V116.636H193.186V131H190.912L190.632 129.584C190.313 130.022 189.888 130.408 189.356 130.741C188.837 131.073 188.159 131.239 187.321 131.239ZM187.859 129.005C188.684 129.005 189.356 128.732 189.874 128.187C190.406 127.628 190.672 126.917 190.672 126.052C190.672 125.188 190.406 124.483 189.874 123.938C189.356 123.379 188.684 123.1 187.859 123.1C187.048 123.1 186.376 123.372 185.844 123.918C185.312 124.463 185.046 125.168 185.046 126.032C185.046 126.897 185.312 127.608 185.844 128.167C186.376 128.726 187.048 129.005 187.859 129.005ZM199.278 131.239C198.4 131.239 197.628 131.1 196.963 130.82C196.298 130.528 195.766 130.129 195.367 129.623C194.968 129.118 194.729 128.533 194.649 127.868H197.223C197.303 128.254 197.515 128.586 197.861 128.865C198.22 129.131 198.679 129.264 199.238 129.264C199.796 129.264 200.202 129.151 200.455 128.925C200.721 128.699 200.854 128.44 200.854 128.147C200.854 127.722 200.667 127.436 200.295 127.289C199.923 127.13 199.404 126.977 198.739 126.83C198.313 126.737 197.881 126.624 197.442 126.491C197.003 126.358 196.598 126.192 196.225 125.993C195.866 125.78 195.574 125.514 195.347 125.195C195.121 124.862 195.008 124.456 195.008 123.978C195.008 123.1 195.354 122.362 196.046 121.763C196.751 121.165 197.735 120.865 198.998 120.865C200.169 120.865 201.1 121.138 201.791 121.683C202.496 122.229 202.915 122.98 203.048 123.938H200.634C200.488 123.206 199.936 122.84 198.978 122.84C198.5 122.84 198.127 122.933 197.861 123.12C197.608 123.306 197.482 123.539 197.482 123.818C197.482 124.111 197.675 124.343 198.061 124.516C198.446 124.689 198.958 124.849 199.597 124.995C200.288 125.155 200.92 125.334 201.492 125.534C202.077 125.72 202.543 126.006 202.889 126.392C203.234 126.764 203.407 127.303 203.407 128.007C203.421 128.619 203.261 129.171 202.928 129.663C202.596 130.155 202.117 130.541 201.492 130.82C200.867 131.1 200.129 131.239 199.278 131.239ZM206.168 131.14C205.703 131.14 205.317 130.993 205.011 130.701C204.718 130.408 204.572 130.056 204.572 129.643C204.572 129.218 204.718 128.859 205.011 128.566C205.317 128.273 205.703 128.127 206.168 128.127C206.634 128.127 207.013 128.273 207.305 128.566C207.611 128.859 207.764 129.218 207.764 129.643C207.764 130.056 207.611 130.408 207.305 130.701C207.013 130.993 206.634 131.14 206.168 131.14Z" fill="#1A191E"/>
<path d="M83.1278 145.364H85.1221L88.1618 150.653H88.2868L91.3266 145.364H93.3209L89.0993 152.432V157H87.3493V152.432L83.1278 145.364ZM97.0809 157.176C96.2627 157.176 95.5487 156.989 94.9388 156.614C94.329 156.239 93.8555 155.714 93.5184 155.04C93.1813 154.366 93.0127 153.578 93.0127 152.676C93.0127 151.771 93.1813 150.979 93.5184 150.301C93.8555 149.623 94.329 149.097 94.9388 148.722C95.5487 148.347 96.2627 148.159 97.0809 148.159C97.8991 148.159 98.6131 148.347 99.2229 148.722C99.8328 149.097 100.306 149.623 100.643 150.301C100.98 150.979 101.149 151.771 101.149 152.676C101.149 153.578 100.98 154.366 100.643 155.04C100.306 155.714 99.8328 156.239 99.2229 156.614C98.6131 156.989 97.8991 157.176 97.0809 157.176ZM97.0866 155.75C97.6169 155.75 98.0563 155.61 98.4047 155.33C98.7532 155.049 99.0108 154.676 99.1775 154.21C99.3479 153.744 99.4332 153.231 99.4332 152.67C99.4332 152.114 99.3479 151.602 99.1775 151.136C99.0108 150.667 98.7532 150.29 98.4047 150.006C98.0563 149.722 97.6169 149.58 97.0866 149.58C96.5525 149.58 96.1093 149.722 95.757 150.006C95.4085 150.29 95.1491 150.667 94.9786 151.136C94.8119 151.602 94.7286 152.114 94.7286 152.67C94.7286 153.231 94.8119 153.744 94.9786 154.21C95.1491 154.676 95.4085 155.049 95.757 155.33C96.1093 155.61 96.5525 155.75 97.0866 155.75ZM108.574 153.381V148.273H110.278V157H108.608V155.489H108.517C108.316 155.955 107.994 156.343 107.551 156.653C107.112 156.96 106.564 157.114 105.909 157.114C105.348 157.114 104.852 156.991 104.42 156.744C103.992 156.494 103.655 156.125 103.409 155.636C103.167 155.148 103.045 154.544 103.045 153.824V148.273H104.744V153.619C104.744 154.214 104.909 154.687 105.239 155.04C105.568 155.392 105.996 155.568 106.523 155.568C106.841 155.568 107.157 155.489 107.472 155.33C107.79 155.17 108.053 154.93 108.261 154.608C108.473 154.286 108.578 153.877 108.574 153.381ZM112.561 157V148.273H114.203V149.659H114.294C114.453 149.189 114.733 148.82 115.135 148.551C115.54 148.278 115.998 148.142 116.51 148.142C116.616 148.142 116.741 148.146 116.885 148.153C117.033 148.161 117.148 148.17 117.231 148.182V149.807C117.163 149.788 117.042 149.767 116.868 149.744C116.694 149.718 116.519 149.705 116.345 149.705C115.944 149.705 115.586 149.79 115.271 149.96C114.961 150.127 114.714 150.36 114.533 150.659C114.351 150.955 114.26 151.292 114.26 151.67V157H112.561ZM122.936 157V148.273H124.567V149.693H124.675C124.856 149.212 125.154 148.837 125.567 148.568C125.98 148.295 126.474 148.159 127.05 148.159C127.633 148.159 128.122 148.295 128.516 148.568C128.913 148.841 129.207 149.216 129.396 149.693H129.487C129.695 149.227 130.027 148.856 130.481 148.58C130.936 148.299 131.478 148.159 132.106 148.159C132.898 148.159 133.544 148.407 134.044 148.903C134.548 149.4 134.8 150.148 134.8 151.148V157H133.101V151.307C133.101 150.716 132.94 150.288 132.618 150.023C132.296 149.758 131.911 149.625 131.464 149.625C130.911 149.625 130.481 149.795 130.175 150.136C129.868 150.473 129.714 150.907 129.714 151.438V157H128.021V151.199C128.021 150.725 127.873 150.345 127.578 150.057C127.283 149.769 126.898 149.625 126.425 149.625C126.103 149.625 125.805 149.71 125.533 149.881C125.264 150.047 125.046 150.28 124.879 150.58C124.716 150.879 124.635 151.225 124.635 151.619V157H122.936ZM140.838 157.176C139.978 157.176 139.238 156.992 138.616 156.625C137.999 156.254 137.522 155.733 137.185 155.062C136.851 154.388 136.685 153.598 136.685 152.693C136.685 151.799 136.851 151.011 137.185 150.33C137.522 149.648 137.991 149.116 138.594 148.733C139.2 148.35 139.908 148.159 140.719 148.159C141.211 148.159 141.688 148.241 142.15 148.403C142.613 148.566 143.027 148.822 143.395 149.17C143.762 149.519 144.052 149.972 144.264 150.528C144.476 151.081 144.582 151.754 144.582 152.545V153.148H137.645V151.875H142.918C142.918 151.428 142.827 151.032 142.645 150.688C142.463 150.339 142.207 150.064 141.878 149.864C141.552 149.663 141.169 149.562 140.73 149.562C140.253 149.562 139.836 149.68 139.48 149.915C139.128 150.146 138.855 150.449 138.662 150.824C138.472 151.195 138.378 151.598 138.378 152.034V153.028C138.378 153.612 138.48 154.108 138.685 154.517C138.893 154.926 139.183 155.239 139.554 155.455C139.925 155.667 140.359 155.773 140.855 155.773C141.177 155.773 141.471 155.727 141.736 155.636C142.001 155.542 142.23 155.402 142.423 155.216C142.616 155.03 142.764 154.801 142.866 154.528L144.474 154.818C144.346 155.292 144.114 155.706 143.781 156.062C143.452 156.415 143.037 156.689 142.537 156.886C142.041 157.08 141.474 157.176 140.838 157.176ZM149.007 157.193C148.454 157.193 147.954 157.091 147.507 156.886C147.06 156.678 146.706 156.377 146.445 155.983C146.187 155.589 146.058 155.106 146.058 154.534C146.058 154.042 146.153 153.636 146.342 153.318C146.532 153 146.787 152.748 147.109 152.562C147.431 152.377 147.791 152.237 148.189 152.142C148.587 152.047 148.992 151.975 149.405 151.926C149.927 151.866 150.352 151.816 150.677 151.778C151.003 151.737 151.24 151.67 151.388 151.58C151.535 151.489 151.609 151.341 151.609 151.136V151.097C151.609 150.6 151.469 150.216 151.189 149.943C150.912 149.67 150.499 149.534 149.95 149.534C149.378 149.534 148.927 149.661 148.598 149.915C148.272 150.165 148.047 150.443 147.922 150.75L146.325 150.386C146.515 149.856 146.791 149.428 147.155 149.102C147.522 148.773 147.945 148.534 148.422 148.386C148.899 148.235 149.401 148.159 149.927 148.159C150.276 148.159 150.645 148.201 151.035 148.284C151.429 148.364 151.797 148.511 152.138 148.727C152.482 148.943 152.765 149.252 152.984 149.653C153.204 150.051 153.314 150.568 153.314 151.205V157H151.655V155.807H151.587C151.477 156.027 151.312 156.242 151.092 156.455C150.873 156.667 150.59 156.843 150.246 156.983C149.901 157.123 149.488 157.193 149.007 157.193ZM149.376 155.83C149.846 155.83 150.248 155.737 150.581 155.551C150.918 155.366 151.174 155.123 151.348 154.824C151.526 154.521 151.615 154.197 151.615 153.852V152.727C151.554 152.788 151.437 152.845 151.263 152.898C151.092 152.947 150.897 152.991 150.677 153.028C150.458 153.062 150.244 153.095 150.035 153.125C149.827 153.152 149.653 153.174 149.513 153.193C149.183 153.235 148.882 153.305 148.609 153.403C148.34 153.502 148.124 153.644 147.962 153.83C147.802 154.011 147.723 154.254 147.723 154.557C147.723 154.977 147.878 155.295 148.189 155.511C148.499 155.723 148.895 155.83 149.376 155.83ZM157.275 145.364V157H155.577V145.364H157.275ZM165.494 151.818V157H163.795V145.364H165.472V149.693H165.579C165.784 149.223 166.097 148.85 166.517 148.574C166.937 148.297 167.487 148.159 168.165 148.159C168.763 148.159 169.286 148.282 169.733 148.528C170.184 148.775 170.532 149.142 170.778 149.631C171.028 150.116 171.153 150.722 171.153 151.449V157H169.454V151.653C169.454 151.013 169.29 150.517 168.96 150.165C168.631 149.809 168.172 149.631 167.585 149.631C167.184 149.631 166.824 149.716 166.506 149.886C166.191 150.057 165.943 150.307 165.761 150.636C165.583 150.962 165.494 151.356 165.494 151.818ZM175.96 157.193C175.407 157.193 174.907 157.091 174.46 156.886C174.013 156.678 173.659 156.377 173.398 155.983C173.14 155.589 173.011 155.106 173.011 154.534C173.011 154.042 173.106 153.636 173.295 153.318C173.485 153 173.74 152.748 174.062 152.562C174.384 152.377 174.744 152.237 175.142 152.142C175.54 152.047 175.945 151.975 176.358 151.926C176.881 151.866 177.305 151.816 177.631 151.778C177.956 151.737 178.193 151.67 178.341 151.58C178.489 151.489 178.562 151.341 178.562 151.136V151.097C178.562 150.6 178.422 150.216 178.142 149.943C177.865 149.67 177.453 149.534 176.903 149.534C176.331 149.534 175.881 149.661 175.551 149.915C175.225 150.165 175 150.443 174.875 150.75L173.278 150.386C173.468 149.856 173.744 149.428 174.108 149.102C174.475 148.773 174.898 148.534 175.375 148.386C175.852 148.235 176.354 148.159 176.881 148.159C177.229 148.159 177.598 148.201 177.989 148.284C178.382 148.364 178.75 148.511 179.091 148.727C179.436 148.943 179.718 149.252 179.937 149.653C180.157 150.051 180.267 150.568 180.267 151.205V157H178.608V155.807H178.54C178.43 156.027 178.265 156.242 178.045 156.455C177.826 156.667 177.543 156.843 177.199 156.983C176.854 157.123 176.441 157.193 175.96 157.193ZM176.329 155.83C176.799 155.83 177.201 155.737 177.534 155.551C177.871 155.366 178.127 155.123 178.301 154.824C178.479 154.521 178.568 154.197 178.568 153.852V152.727C178.507 152.788 178.39 152.845 178.216 152.898C178.045 152.947 177.85 152.991 177.631 153.028C177.411 153.062 177.197 153.095 176.989 153.125C176.78 153.152 176.606 153.174 176.466 153.193C176.136 153.235 175.835 153.305 175.562 153.403C175.293 153.502 175.078 153.644 174.915 153.83C174.756 154.011 174.676 154.254 174.676 154.557C174.676 154.977 174.831 155.295 175.142 155.511C175.453 155.723 175.848 155.83 176.329 155.83ZM189.07 150.403L187.53 150.676C187.465 150.479 187.363 150.292 187.223 150.114C187.087 149.936 186.901 149.79 186.666 149.676C186.431 149.562 186.138 149.506 185.785 149.506C185.304 149.506 184.903 149.614 184.581 149.83C184.259 150.042 184.098 150.316 184.098 150.653C184.098 150.945 184.206 151.18 184.422 151.358C184.638 151.536 184.986 151.682 185.467 151.795L186.854 152.114C187.657 152.299 188.255 152.585 188.649 152.972C189.043 153.358 189.24 153.86 189.24 154.477C189.24 155 189.088 155.466 188.785 155.875C188.486 156.28 188.068 156.598 187.53 156.83C186.996 157.061 186.376 157.176 185.672 157.176C184.695 157.176 183.897 156.968 183.28 156.551C182.662 156.131 182.284 155.534 182.143 154.761L183.785 154.511C183.888 154.939 184.098 155.263 184.416 155.483C184.734 155.699 185.149 155.807 185.66 155.807C186.217 155.807 186.662 155.691 186.996 155.46C187.329 155.225 187.496 154.939 187.496 154.602C187.496 154.33 187.393 154.1 187.189 153.915C186.988 153.729 186.679 153.589 186.263 153.494L184.785 153.17C183.971 152.985 183.369 152.689 182.979 152.284C182.592 151.879 182.399 151.366 182.399 150.744C182.399 150.229 182.543 149.778 182.831 149.392C183.119 149.006 183.516 148.705 184.024 148.489C184.532 148.269 185.113 148.159 185.768 148.159C186.712 148.159 187.454 148.364 187.996 148.773C188.537 149.178 188.895 149.722 189.07 150.403ZM197.882 157.193C197.329 157.193 196.829 157.091 196.382 156.886C195.935 156.678 195.581 156.377 195.32 155.983C195.062 155.589 194.933 155.106 194.933 154.534C194.933 154.042 195.028 153.636 195.217 153.318C195.407 153 195.662 152.748 195.984 152.562C196.306 152.377 196.666 152.237 197.064 152.142C197.462 152.047 197.867 151.975 198.28 151.926C198.802 151.866 199.227 151.816 199.552 151.778C199.878 151.737 200.115 151.67 200.263 151.58C200.41 151.489 200.484 151.341 200.484 151.136V151.097C200.484 150.6 200.344 150.216 200.064 149.943C199.787 149.67 199.374 149.534 198.825 149.534C198.253 149.534 197.802 149.661 197.473 149.915C197.147 150.165 196.922 150.443 196.797 150.75L195.2 150.386C195.39 149.856 195.666 149.428 196.03 149.102C196.397 148.773 196.82 148.534 197.297 148.386C197.774 148.235 198.276 148.159 198.802 148.159C199.151 148.159 199.52 148.201 199.91 148.284C200.304 148.364 200.672 148.511 201.013 148.727C201.357 148.943 201.64 149.252 201.859 149.653C202.079 150.051 202.189 150.568 202.189 151.205V157H200.53V155.807H200.462C200.352 156.027 200.187 156.242 199.967 156.455C199.748 156.667 199.465 156.843 199.121 156.983C198.776 157.123 198.363 157.193 197.882 157.193ZM198.251 155.83C198.721 155.83 199.123 155.737 199.456 155.551C199.793 155.366 200.049 155.123 200.223 154.824C200.401 154.521 200.49 154.197 200.49 153.852V152.727C200.429 152.788 200.312 152.845 200.138 152.898C199.967 152.947 199.772 152.991 199.552 153.028C199.333 153.062 199.119 153.095 198.91 153.125C198.702 153.152 198.528 153.174 198.388 153.193C198.058 153.235 197.757 153.305 197.484 153.403C197.215 153.502 196.999 153.644 196.837 153.83C196.677 154.011 196.598 154.254 196.598 154.557C196.598 154.977 196.753 155.295 197.064 155.511C197.374 155.723 197.77 155.83 198.251 155.83ZM204.452 157V148.273H206.094V149.659H206.185C206.344 149.189 206.624 148.82 207.025 148.551C207.431 148.278 207.889 148.142 208.4 148.142C208.507 148.142 208.632 148.146 208.775 148.153C208.923 148.161 209.039 148.17 209.122 148.182V149.807C209.054 149.788 208.933 149.767 208.758 149.744C208.584 149.718 208.41 149.705 208.236 149.705C207.834 149.705 207.476 149.79 207.162 149.96C206.851 150.127 206.605 150.36 206.423 150.659C206.241 150.955 206.15 151.292 206.15 151.67V157H204.452ZM210.592 157V148.273H212.234V149.659H212.325C212.484 149.189 212.765 148.82 213.166 148.551C213.571 148.278 214.03 148.142 214.541 148.142C214.647 148.142 214.772 148.146 214.916 148.153C215.064 148.161 215.179 148.17 215.263 148.182V149.807C215.195 149.788 215.073 149.767 214.899 149.744C214.725 149.718 214.551 149.705 214.376 149.705C213.975 149.705 213.617 149.79 213.302 149.96C212.992 150.127 212.746 150.36 212.564 150.659C212.382 150.955 212.291 151.292 212.291 151.67V157H210.592ZM216.733 157V148.273H218.432V157H216.733ZM217.591 146.926C217.295 146.926 217.042 146.828 216.829 146.631C216.621 146.43 216.517 146.191 216.517 145.915C216.517 145.634 216.621 145.396 216.829 145.199C217.042 144.998 217.295 144.898 217.591 144.898C217.886 144.898 218.138 144.998 218.347 145.199C218.559 145.396 218.665 145.634 218.665 145.915C218.665 146.191 218.559 146.43 218.347 146.631C218.138 146.828 217.886 146.926 217.591 146.926ZM228.183 148.273L225.018 157H223.2L220.03 148.273H221.854L224.064 154.989H224.155L226.359 148.273H228.183ZM233.244 157.176C232.384 157.176 231.644 156.992 231.023 156.625C230.405 156.254 229.928 155.733 229.591 155.062C229.257 154.388 229.091 153.598 229.091 152.693C229.091 151.799 229.257 151.011 229.591 150.33C229.928 149.648 230.398 149.116 231 148.733C231.606 148.35 232.314 148.159 233.125 148.159C233.617 148.159 234.095 148.241 234.557 148.403C235.019 148.566 235.434 148.822 235.801 149.17C236.168 149.519 236.458 149.972 236.67 150.528C236.882 151.081 236.989 151.754 236.989 152.545V153.148H230.051V151.875H235.324C235.324 151.428 235.233 151.032 235.051 150.688C234.869 150.339 234.614 150.064 234.284 149.864C233.958 149.663 233.576 149.562 233.136 149.562C232.659 149.562 232.242 149.68 231.886 149.915C231.534 150.146 231.261 150.449 231.068 150.824C230.879 151.195 230.784 151.598 230.784 152.034V153.028C230.784 153.612 230.886 154.108 231.091 154.517C231.299 154.926 231.589 155.239 231.96 155.455C232.331 155.667 232.765 155.773 233.261 155.773C233.583 155.773 233.877 155.727 234.142 155.636C234.407 155.542 234.636 155.402 234.829 155.216C235.023 155.03 235.17 154.801 235.273 154.528L236.881 154.818C236.752 155.292 236.521 155.706 236.187 156.062C235.858 156.415 235.443 156.689 234.943 156.886C234.447 157.08 233.881 157.176 233.244 157.176ZM242.141 157.17C241.436 157.17 240.807 156.991 240.254 156.631C239.705 156.267 239.273 155.75 238.959 155.08C238.648 154.405 238.493 153.597 238.493 152.653C238.493 151.71 238.65 150.903 238.964 150.233C239.283 149.562 239.718 149.049 240.271 148.693C240.824 148.337 241.451 148.159 242.152 148.159C242.694 148.159 243.129 148.25 243.459 148.432C243.792 148.61 244.05 148.818 244.231 149.057C244.417 149.295 244.561 149.506 244.663 149.688H244.766V145.364H246.464V157H244.805V155.642H244.663C244.561 155.828 244.413 156.04 244.22 156.278C244.031 156.517 243.769 156.725 243.436 156.903C243.103 157.081 242.671 157.17 242.141 157.17ZM242.516 155.722C243.004 155.722 243.417 155.593 243.754 155.335C244.095 155.074 244.353 154.712 244.527 154.25C244.705 153.788 244.794 153.25 244.794 152.636C244.794 152.03 244.707 151.5 244.533 151.045C244.358 150.591 244.103 150.237 243.766 149.983C243.428 149.729 243.012 149.602 242.516 149.602C242.004 149.602 241.578 149.735 241.237 150C240.896 150.265 240.639 150.627 240.464 151.085C240.294 151.544 240.209 152.061 240.209 152.636C240.209 153.22 240.296 153.744 240.47 154.21C240.644 154.676 240.902 155.045 241.243 155.318C241.588 155.587 242.012 155.722 242.516 155.722ZM255.266 145.364L255.118 153.653H253.544L253.396 145.364H255.266ZM254.334 157.108C254.019 157.108 253.75 156.998 253.527 156.778C253.303 156.555 253.194 156.286 253.197 155.972C253.194 155.661 253.303 155.396 253.527 155.176C253.75 154.953 254.019 154.841 254.334 154.841C254.641 154.841 254.906 154.953 255.129 155.176C255.353 155.396 255.466 155.661 255.47 155.972C255.466 156.18 255.411 156.371 255.305 156.545C255.203 156.716 255.067 156.852 254.896 156.955C254.726 157.057 254.538 157.108 254.334 157.108Z" fill="#1A191E"/>
<rect x="0.74707" y="195.96" width="498.753" height="82" rx="10" fill="#F8F8F8"/>
<rect x="16.7471" y="211.96" width="50" height="50" rx="10" fill="#FFC727"/>
<path d="M84.1037 228.96V214.995H86.6573V220.801H92.9216V214.995H95.4753V228.96H92.9216V222.875H86.6573V228.96H84.1037ZM102.279 229.2C101.322 229.2 100.457 228.98 99.6858 228.541C98.9277 228.102 98.3226 227.497 97.8704 226.726C97.4315 225.941 97.212 225.037 97.212 224.013C97.212 222.988 97.4381 222.091 97.8903 221.319C98.3425 220.535 98.9477 219.923 99.7058 219.484C100.477 219.045 101.342 218.826 102.299 218.826C103.244 218.826 104.095 219.045 104.853 219.484C105.624 219.923 106.229 220.535 106.668 221.319C107.121 222.091 107.347 222.988 107.347 224.013C107.347 225.037 107.121 225.941 106.668 226.726C106.229 227.497 105.624 228.102 104.853 228.541C104.081 228.98 103.224 229.2 102.279 229.2ZM102.279 226.985C102.944 226.985 103.523 226.739 104.015 226.247C104.507 225.742 104.753 224.997 104.753 224.013C104.753 223.028 104.507 222.29 104.015 221.798C103.523 221.293 102.951 221.04 102.299 221.04C101.621 221.04 101.036 221.293 100.544 221.798C100.065 222.29 99.8255 223.028 99.8255 224.013C99.8255 224.997 100.065 225.742 100.544 226.247C101.036 226.739 101.614 226.985 102.279 226.985ZM109.031 228.96V219.065H111.286L111.505 220.402C111.824 219.923 112.243 219.544 112.762 219.264C113.294 218.972 113.906 218.826 114.597 218.826C116.127 218.826 117.211 219.417 117.849 220.601C118.208 220.056 118.687 219.624 119.286 219.304C119.898 218.985 120.563 218.826 121.281 218.826C122.571 218.826 123.562 219.211 124.253 219.983C124.945 220.754 125.291 221.885 125.291 223.374V228.96H122.737V223.614C122.737 222.762 122.571 222.111 122.238 221.658C121.919 221.206 121.42 220.98 120.742 220.98C120.05 220.98 119.492 221.233 119.066 221.738C118.654 222.244 118.448 222.949 118.448 223.853V228.96H115.894V223.614C115.894 222.762 115.728 222.111 115.395 221.658C115.063 221.206 114.551 220.98 113.859 220.98C113.181 220.98 112.629 221.233 112.203 221.738C111.791 222.244 111.585 222.949 111.585 223.853V228.96H109.031ZM131.925 229.2C130.927 229.2 130.043 228.987 129.271 228.561C128.5 228.136 127.895 227.537 127.456 226.766C127.017 225.994 126.797 225.103 126.797 224.092C126.797 223.068 127.01 222.157 127.436 221.359C127.875 220.561 128.473 219.943 129.231 219.504C130.003 219.052 130.907 218.826 131.945 218.826C132.915 218.826 133.773 219.038 134.518 219.464C135.263 219.89 135.841 220.475 136.254 221.22C136.679 221.951 136.892 222.769 136.892 223.673C136.892 223.82 136.886 223.973 136.872 224.132C136.872 224.292 136.866 224.458 136.852 224.631H129.331C129.384 225.402 129.65 226.008 130.129 226.446C130.621 226.885 131.213 227.105 131.905 227.105C132.423 227.105 132.856 226.992 133.201 226.766C133.561 226.526 133.827 226.22 133.999 225.848H136.593C136.407 226.473 136.094 227.045 135.655 227.564C135.23 228.069 134.698 228.468 134.059 228.761C133.434 229.053 132.723 229.2 131.925 229.2ZM131.945 220.9C131.319 220.9 130.767 221.08 130.289 221.439C129.81 221.785 129.504 222.317 129.371 223.035H134.299C134.259 222.383 134.019 221.865 133.58 221.479C133.142 221.093 132.596 220.9 131.945 220.9ZM138.441 228.96V219.065H140.716L140.955 220.92C141.314 220.282 141.8 219.776 142.412 219.404C143.037 219.018 143.768 218.826 144.606 218.826V221.519H143.888C143.329 221.519 142.83 221.605 142.392 221.778C141.953 221.951 141.607 222.25 141.354 222.676C141.115 223.102 140.995 223.693 140.995 224.451V228.96H138.441ZM149.968 228.96V214.995H158.985V217.05H152.522V220.96H157.748V222.975H152.522V228.96H149.968ZM164.52 229.2C163.562 229.2 162.698 228.98 161.926 228.541C161.168 228.102 160.563 227.497 160.111 226.726C159.672 225.941 159.452 225.037 159.452 224.013C159.452 222.988 159.679 222.091 160.131 221.319C160.583 220.535 161.188 219.923 161.946 219.484C162.718 219.045 163.582 218.826 164.54 218.826C165.484 218.826 166.335 219.045 167.093 219.484C167.865 219.923 168.47 220.535 168.909 221.319C169.361 222.091 169.587 222.988 169.587 224.013C169.587 225.037 169.361 225.941 168.909 226.726C168.47 227.497 167.865 228.102 167.093 228.541C166.322 228.98 165.464 229.2 164.52 229.2ZM164.52 226.985C165.185 226.985 165.763 226.739 166.255 226.247C166.748 225.742 166.994 224.997 166.994 224.013C166.994 223.028 166.748 222.29 166.255 221.798C165.763 221.293 165.191 221.04 164.54 221.04C163.861 221.04 163.276 221.293 162.784 221.798C162.305 222.29 162.066 223.028 162.066 224.013C162.066 224.997 162.305 225.742 162.784 226.247C163.276 226.739 163.855 226.985 164.52 226.985ZM176.02 229.2C175.062 229.2 174.198 228.98 173.426 228.541C172.668 228.102 172.063 227.497 171.611 226.726C171.172 225.941 170.953 225.037 170.953 224.013C170.953 222.988 171.179 222.091 171.631 221.319C172.083 220.535 172.688 219.923 173.446 219.484C174.218 219.045 175.082 218.826 176.04 218.826C176.984 218.826 177.835 219.045 178.594 219.484C179.365 219.923 179.97 220.535 180.409 221.319C180.861 222.091 181.087 222.988 181.087 224.013C181.087 225.037 180.861 225.941 180.409 226.726C179.97 227.497 179.365 228.102 178.594 228.541C177.822 228.98 176.964 229.2 176.02 229.2ZM176.02 226.985C176.685 226.985 177.264 226.739 177.756 226.247C178.248 225.742 178.494 224.997 178.494 224.013C178.494 223.028 178.248 222.29 177.756 221.798C177.264 221.293 176.692 221.04 176.04 221.04C175.362 221.04 174.776 221.293 174.284 221.798C173.806 222.29 173.566 223.028 173.566 224.013C173.566 224.997 173.806 225.742 174.284 226.247C174.776 226.739 175.355 226.985 176.02 226.985ZM187.321 229.2C186.39 229.2 185.558 228.974 184.827 228.521C184.095 228.069 183.517 227.451 183.091 226.666C182.666 225.881 182.453 224.99 182.453 223.993C182.453 222.995 182.666 222.111 183.091 221.339C183.517 220.555 184.095 219.943 184.827 219.504C185.558 219.052 186.39 218.826 187.321 218.826C188.065 218.826 188.717 218.965 189.276 219.244C189.834 219.524 190.287 219.916 190.632 220.422V214.596H193.186V228.96H190.912L190.632 227.544C190.313 227.983 189.888 228.368 189.356 228.701C188.837 229.033 188.159 229.2 187.321 229.2ZM187.859 226.965C188.684 226.965 189.356 226.693 189.874 226.147C190.406 225.589 190.672 224.877 190.672 224.013C190.672 223.148 190.406 222.443 189.874 221.898C189.356 221.339 188.684 221.06 187.859 221.06C187.048 221.06 186.376 221.333 185.844 221.878C185.312 222.423 185.046 223.128 185.046 223.993C185.046 224.857 185.312 225.569 185.844 226.127C186.376 226.686 187.048 226.965 187.859 226.965ZM199.278 229.2C198.4 229.2 197.628 229.06 196.963 228.781C196.298 228.488 195.766 228.089 195.367 227.584C194.968 227.078 194.729 226.493 194.649 225.828H197.223C197.303 226.214 197.515 226.546 197.861 226.826C198.22 227.092 198.679 227.225 199.238 227.225C199.796 227.225 200.202 227.111 200.455 226.885C200.721 226.659 200.854 226.4 200.854 226.107C200.854 225.682 200.667 225.396 200.295 225.249C199.923 225.09 199.404 224.937 198.739 224.791C198.313 224.698 197.881 224.584 197.442 224.451C197.003 224.318 196.598 224.152 196.225 223.953C195.866 223.74 195.574 223.474 195.347 223.155C195.121 222.822 195.008 222.417 195.008 221.938C195.008 221.06 195.354 220.322 196.046 219.723C196.751 219.125 197.735 218.826 198.998 218.826C200.169 218.826 201.1 219.098 201.791 219.643C202.496 220.189 202.915 220.94 203.048 221.898H200.634C200.488 221.166 199.936 220.801 198.978 220.801C198.5 220.801 198.127 220.894 197.861 221.08C197.608 221.266 197.482 221.499 197.482 221.778C197.482 222.071 197.675 222.304 198.061 222.476C198.446 222.649 198.958 222.809 199.597 222.955C200.288 223.115 200.92 223.294 201.492 223.494C202.077 223.68 202.543 223.966 202.889 224.352C203.234 224.724 203.407 225.263 203.407 225.968C203.421 226.579 203.261 227.131 202.928 227.624C202.596 228.116 202.117 228.501 201.492 228.781C200.867 229.06 200.129 229.2 199.278 229.2ZM206.168 229.1C205.703 229.1 205.317 228.954 205.011 228.661C204.718 228.368 204.572 228.016 204.572 227.604C204.572 227.178 204.718 226.819 205.011 226.526C205.317 226.234 205.703 226.087 206.168 226.087C206.634 226.087 207.013 226.234 207.305 226.526C207.611 226.819 207.764 227.178 207.764 227.604C207.764 228.016 207.611 228.368 207.305 228.661C207.013 228.954 206.634 229.1 206.168 229.1Z" fill="#1A191E"/>
<path d="M83.1278 243.324H85.1221L88.1618 248.614H88.2868L91.3266 243.324H93.3209L89.0993 250.392V254.96H87.3493V250.392L83.1278 243.324ZM97.0809 255.136C96.2627 255.136 95.5487 254.949 94.9388 254.574C94.329 254.199 93.8555 253.674 93.5184 253C93.1813 252.326 93.0127 251.538 93.0127 250.636C93.0127 249.731 93.1813 248.939 93.5184 248.261C93.8555 247.583 94.329 247.057 94.9388 246.682C95.5487 246.307 96.2627 246.119 97.0809 246.119C97.8991 246.119 98.6131 246.307 99.2229 246.682C99.8328 247.057 100.306 247.583 100.643 248.261C100.98 248.939 101.149 249.731 101.149 250.636C101.149 251.538 100.98 252.326 100.643 253C100.306 253.674 99.8328 254.199 99.2229 254.574C98.6131 254.949 97.8991 255.136 97.0809 255.136ZM97.0866 253.71C97.6169 253.71 98.0563 253.57 98.4047 253.29C98.7532 253.009 99.0108 252.636 99.1775 252.17C99.3479 251.705 99.4332 251.191 99.4332 250.631C99.4332 250.074 99.3479 249.562 99.1775 249.097C99.0108 248.627 98.7532 248.25 98.4047 247.966C98.0563 247.682 97.6169 247.54 97.0866 247.54C96.5525 247.54 96.1093 247.682 95.757 247.966C95.4085 248.25 95.1491 248.627 94.9786 249.097C94.8119 249.562 94.7286 250.074 94.7286 250.631C94.7286 251.191 94.8119 251.705 94.9786 252.17C95.1491 252.636 95.4085 253.009 95.757 253.29C96.1093 253.57 96.5525 253.71 97.0866 253.71ZM108.574 251.341V246.233H110.278V254.96H108.608V253.449H108.517C108.316 253.915 107.994 254.303 107.551 254.614C107.112 254.92 106.564 255.074 105.909 255.074C105.348 255.074 104.852 254.951 104.42 254.705C103.992 254.455 103.655 254.085 103.409 253.597C103.167 253.108 103.045 252.504 103.045 251.784V246.233H104.744V251.58C104.744 252.174 104.909 252.648 105.239 253C105.568 253.352 105.996 253.528 106.523 253.528C106.841 253.528 107.157 253.449 107.472 253.29C107.79 253.131 108.053 252.89 108.261 252.568C108.473 252.246 108.578 251.837 108.574 251.341ZM116.795 258.233V246.233H118.454V247.648H118.597C118.695 247.466 118.837 247.256 119.023 247.017C119.208 246.778 119.466 246.57 119.795 246.392C120.125 246.21 120.561 246.119 121.102 246.119C121.807 246.119 122.436 246.297 122.989 246.653C123.542 247.009 123.975 247.523 124.29 248.193C124.608 248.864 124.767 249.67 124.767 250.614C124.767 251.557 124.61 252.366 124.295 253.04C123.981 253.71 123.549 254.227 123 254.591C122.451 254.951 121.824 255.131 121.119 255.131C120.589 255.131 120.155 255.042 119.818 254.864C119.485 254.686 119.223 254.477 119.034 254.239C118.845 254 118.699 253.788 118.597 253.602H118.494V258.233H116.795ZM118.46 250.597C118.46 251.21 118.549 251.748 118.727 252.21C118.905 252.672 119.163 253.034 119.5 253.295C119.837 253.553 120.25 253.682 120.739 253.682C121.246 253.682 121.67 253.547 122.011 253.278C122.352 253.006 122.61 252.636 122.784 252.17C122.962 251.705 123.051 251.18 123.051 250.597C123.051 250.021 122.964 249.504 122.79 249.045C122.619 248.587 122.362 248.225 122.017 247.96C121.676 247.695 121.25 247.562 120.739 247.562C120.246 247.562 119.829 247.689 119.489 247.943C119.151 248.197 118.896 248.551 118.722 249.006C118.547 249.46 118.46 249.991 118.46 250.597ZM129.21 255.153C128.657 255.153 128.157 255.051 127.71 254.847C127.263 254.638 126.909 254.337 126.648 253.943C126.39 253.549 126.261 253.066 126.261 252.494C126.261 252.002 126.356 251.597 126.545 251.278C126.735 250.96 126.99 250.708 127.312 250.523C127.634 250.337 127.994 250.197 128.392 250.102C128.79 250.008 129.195 249.936 129.608 249.886C130.131 249.826 130.555 249.776 130.881 249.739C131.206 249.697 131.443 249.631 131.591 249.54C131.739 249.449 131.812 249.301 131.812 249.097V249.057C131.812 248.561 131.672 248.176 131.392 247.903C131.115 247.631 130.703 247.494 130.153 247.494C129.581 247.494 129.131 247.621 128.801 247.875C128.475 248.125 128.25 248.403 128.125 248.71L126.528 248.347C126.718 247.816 126.994 247.388 127.358 247.062C127.725 246.733 128.148 246.494 128.625 246.347C129.102 246.195 129.604 246.119 130.131 246.119C130.479 246.119 130.848 246.161 131.239 246.244C131.632 246.324 132 246.472 132.341 246.687C132.686 246.903 132.968 247.212 133.187 247.614C133.407 248.011 133.517 248.528 133.517 249.165V254.96H131.858V253.767H131.79C131.68 253.987 131.515 254.203 131.295 254.415C131.076 254.627 130.793 254.803 130.449 254.943C130.104 255.083 129.691 255.153 129.21 255.153ZM129.579 253.79C130.049 253.79 130.451 253.697 130.784 253.511C131.121 253.326 131.377 253.083 131.551 252.784C131.729 252.481 131.818 252.157 131.818 251.812V250.687C131.757 250.748 131.64 250.805 131.466 250.858C131.295 250.907 131.1 250.951 130.881 250.989C130.661 251.023 130.447 251.055 130.239 251.085C130.03 251.112 129.856 251.134 129.716 251.153C129.386 251.195 129.085 251.265 128.812 251.364C128.543 251.462 128.328 251.604 128.165 251.79C128.006 251.972 127.926 252.214 127.926 252.517C127.926 252.937 128.081 253.256 128.392 253.472C128.703 253.684 129.098 253.79 129.579 253.79ZM136.541 258.233C136.287 258.233 136.056 258.212 135.848 258.17C135.64 258.133 135.484 258.091 135.382 258.045L135.791 256.653C136.102 256.737 136.378 256.773 136.621 256.761C136.863 256.75 137.077 256.659 137.263 256.489C137.452 256.318 137.619 256.04 137.763 255.653L137.973 255.074L134.78 246.233H136.598L138.808 253.006H138.899L141.109 246.233H142.933L139.337 256.125C139.17 256.58 138.958 256.964 138.7 257.278C138.443 257.597 138.136 257.835 137.78 257.994C137.424 258.153 137.011 258.233 136.541 258.233ZM144.53 254.96V246.233H146.16V247.653H146.268C146.45 247.172 146.748 246.797 147.16 246.528C147.573 246.256 148.068 246.119 148.643 246.119C149.227 246.119 149.715 246.256 150.109 246.528C150.507 246.801 150.801 247.176 150.99 247.653H151.081C151.289 247.187 151.621 246.816 152.075 246.54C152.53 246.259 153.071 246.119 153.7 246.119C154.492 246.119 155.138 246.367 155.638 246.864C156.141 247.36 156.393 248.108 156.393 249.108V254.96H154.695V249.267C154.695 248.676 154.534 248.248 154.212 247.983C153.89 247.718 153.505 247.585 153.058 247.585C152.505 247.585 152.075 247.756 151.768 248.097C151.462 248.434 151.308 248.867 151.308 249.398V254.96H149.615V249.159C149.615 248.686 149.467 248.305 149.172 248.017C148.876 247.729 148.492 247.585 148.018 247.585C147.696 247.585 147.399 247.67 147.126 247.841C146.857 248.008 146.64 248.241 146.473 248.54C146.31 248.839 146.229 249.186 146.229 249.58V254.96H144.53ZM162.432 255.136C161.572 255.136 160.831 254.953 160.21 254.585C159.593 254.214 159.115 253.693 158.778 253.023C158.445 252.348 158.278 251.559 158.278 250.653C158.278 249.759 158.445 248.972 158.778 248.29C159.115 247.608 159.585 247.076 160.187 246.693C160.793 246.311 161.502 246.119 162.312 246.119C162.805 246.119 163.282 246.201 163.744 246.364C164.206 246.526 164.621 246.782 164.989 247.131C165.356 247.479 165.646 247.932 165.858 248.489C166.07 249.042 166.176 249.714 166.176 250.506V251.108H159.239V249.835H164.511C164.511 249.388 164.42 248.992 164.239 248.648C164.057 248.299 163.801 248.025 163.472 247.824C163.146 247.623 162.763 247.523 162.324 247.523C161.847 247.523 161.43 247.64 161.074 247.875C160.722 248.106 160.449 248.409 160.256 248.784C160.066 249.155 159.972 249.559 159.972 249.994V250.989C159.972 251.572 160.074 252.068 160.278 252.477C160.487 252.886 160.776 253.199 161.148 253.415C161.519 253.627 161.953 253.733 162.449 253.733C162.771 253.733 163.064 253.687 163.329 253.597C163.595 253.502 163.824 253.362 164.017 253.176C164.21 252.991 164.358 252.761 164.46 252.489L166.068 252.778C165.939 253.252 165.708 253.667 165.375 254.023C165.045 254.375 164.631 254.65 164.131 254.847C163.634 255.04 163.068 255.136 162.432 255.136ZM169.76 249.778V254.96H168.061V246.233H169.692V247.653H169.8C170 247.191 170.315 246.82 170.743 246.54C171.175 246.259 171.718 246.119 172.373 246.119C172.968 246.119 173.489 246.244 173.936 246.494C174.383 246.741 174.73 247.108 174.976 247.597C175.222 248.085 175.345 248.689 175.345 249.409V254.96H173.646V249.614C173.646 248.981 173.481 248.487 173.152 248.131C172.822 247.771 172.37 247.591 171.794 247.591C171.4 247.591 171.05 247.676 170.743 247.847C170.44 248.017 170.199 248.267 170.021 248.597C169.847 248.922 169.76 249.316 169.76 249.778ZM181.697 246.233V247.597H176.93V246.233H181.697ZM178.209 244.142H179.908V252.398C179.908 252.727 179.957 252.975 180.055 253.142C180.154 253.305 180.281 253.417 180.436 253.477C180.595 253.534 180.767 253.562 180.953 253.562C181.089 253.562 181.209 253.553 181.311 253.534C181.413 253.515 181.493 253.5 181.55 253.489L181.856 254.892C181.758 254.93 181.618 254.968 181.436 255.006C181.254 255.047 181.027 255.07 180.754 255.074C180.307 255.081 179.891 255.002 179.504 254.835C179.118 254.669 178.805 254.411 178.567 254.062C178.328 253.714 178.209 253.276 178.209 252.75V244.142ZM189.703 254.96L187.135 246.233H188.891L190.601 252.642H190.686L192.402 246.233H194.158L195.862 252.614H195.947L197.646 246.233H199.402L196.839 254.96H195.106L193.334 248.659H193.203L191.43 254.96H189.703ZM203.554 255.153C203.001 255.153 202.501 255.051 202.054 254.847C201.607 254.638 201.253 254.337 200.991 253.943C200.734 253.549 200.605 253.066 200.605 252.494C200.605 252.002 200.7 251.597 200.889 251.278C201.079 250.96 201.334 250.708 201.656 250.523C201.978 250.337 202.338 250.197 202.736 250.102C203.133 250.008 203.539 249.936 203.952 249.886C204.474 249.826 204.899 249.776 205.224 249.739C205.55 249.697 205.787 249.631 205.935 249.54C206.082 249.449 206.156 249.301 206.156 249.097V249.057C206.156 248.561 206.016 248.176 205.736 247.903C205.459 247.631 205.046 247.494 204.497 247.494C203.925 247.494 203.474 247.621 203.145 247.875C202.819 248.125 202.594 248.403 202.469 248.71L200.872 248.347C201.061 247.816 201.338 247.388 201.702 247.062C202.069 246.733 202.491 246.494 202.969 246.347C203.446 246.195 203.948 246.119 204.474 246.119C204.823 246.119 205.192 246.161 205.582 246.244C205.976 246.324 206.344 246.472 206.685 246.687C207.029 246.903 207.311 247.212 207.531 247.614C207.751 248.011 207.861 248.528 207.861 249.165V254.96H206.202V253.767H206.133C206.024 253.987 205.859 254.203 205.639 254.415C205.419 254.627 205.137 254.803 204.793 254.943C204.448 255.083 204.035 255.153 203.554 255.153ZM203.923 253.79C204.393 253.79 204.794 253.697 205.128 253.511C205.465 253.326 205.721 253.083 205.895 252.784C206.073 252.481 206.162 252.157 206.162 251.812V250.687C206.101 250.748 205.984 250.805 205.81 250.858C205.639 250.907 205.444 250.951 205.224 250.989C205.005 251.023 204.791 251.055 204.582 251.085C204.374 251.112 204.2 251.134 204.06 251.153C203.73 251.195 203.429 251.265 203.156 251.364C202.887 251.462 202.671 251.604 202.508 251.79C202.349 251.972 202.27 252.214 202.27 252.517C202.27 252.937 202.425 253.256 202.736 253.472C203.046 253.684 203.442 253.79 203.923 253.79ZM216.663 248.364L215.123 248.636C215.059 248.439 214.957 248.252 214.817 248.074C214.68 247.896 214.495 247.75 214.26 247.636C214.025 247.523 213.731 247.466 213.379 247.466C212.898 247.466 212.497 247.574 212.175 247.79C211.853 248.002 211.692 248.276 211.692 248.614C211.692 248.905 211.8 249.14 212.016 249.318C212.231 249.496 212.58 249.642 213.061 249.756L214.447 250.074C215.25 250.259 215.849 250.545 216.243 250.932C216.637 251.318 216.834 251.82 216.834 252.437C216.834 252.96 216.682 253.426 216.379 253.835C216.08 254.241 215.661 254.559 215.123 254.79C214.589 255.021 213.97 255.136 213.266 255.136C212.288 255.136 211.491 254.928 210.873 254.511C210.256 254.091 209.877 253.494 209.737 252.722L211.379 252.472C211.481 252.9 211.692 253.223 212.01 253.443C212.328 253.659 212.743 253.767 213.254 253.767C213.811 253.767 214.256 253.651 214.589 253.42C214.923 253.186 215.089 252.9 215.089 252.562C215.089 252.29 214.987 252.061 214.783 251.875C214.582 251.689 214.273 251.549 213.856 251.455L212.379 251.131C211.565 250.945 210.963 250.65 210.572 250.244C210.186 249.839 209.993 249.326 209.993 248.705C209.993 248.189 210.137 247.739 210.425 247.352C210.713 246.966 211.11 246.665 211.618 246.449C212.125 246.229 212.707 246.119 213.362 246.119C214.305 246.119 215.048 246.324 215.589 246.733C216.131 247.138 216.489 247.682 216.663 248.364ZM225.476 255.153C224.923 255.153 224.423 255.051 223.976 254.847C223.529 254.638 223.175 254.337 222.913 253.943C222.656 253.549 222.527 253.066 222.527 252.494C222.527 252.002 222.622 251.597 222.811 251.278C223 250.96 223.256 250.708 223.578 250.523C223.9 250.337 224.26 250.197 224.658 250.102C225.055 250.008 225.461 249.936 225.873 249.886C226.396 249.826 226.82 249.776 227.146 249.739C227.472 249.697 227.709 249.631 227.856 249.54C228.004 249.449 228.078 249.301 228.078 249.097V249.057C228.078 248.561 227.938 248.176 227.658 247.903C227.381 247.631 226.968 247.494 226.419 247.494C225.847 247.494 225.396 247.621 225.067 247.875C224.741 248.125 224.516 248.403 224.391 248.71L222.794 248.347C222.983 247.816 223.26 247.388 223.623 247.062C223.991 246.733 224.413 246.494 224.891 246.347C225.368 246.195 225.87 246.119 226.396 246.119C226.745 246.119 227.114 246.161 227.504 246.244C227.898 246.324 228.266 246.472 228.606 246.687C228.951 246.903 229.233 247.212 229.453 247.614C229.673 248.011 229.783 248.528 229.783 249.165V254.96H228.123V253.767H228.055C227.945 253.987 227.781 254.203 227.561 254.415C227.341 254.627 227.059 254.803 226.714 254.943C226.37 255.083 225.957 255.153 225.476 255.153ZM225.845 253.79C226.315 253.79 226.716 253.697 227.05 253.511C227.387 253.326 227.642 253.083 227.817 252.784C227.995 252.481 228.084 252.157 228.084 251.812V250.687C228.023 250.748 227.906 250.805 227.731 250.858C227.561 250.907 227.366 250.951 227.146 250.989C226.927 251.023 226.713 251.055 226.504 251.085C226.296 251.112 226.122 251.134 225.981 251.153C225.652 251.195 225.351 251.265 225.078 251.364C224.809 251.462 224.593 251.604 224.43 251.79C224.271 251.972 224.192 252.214 224.192 252.517C224.192 252.937 224.347 253.256 224.658 253.472C224.968 253.684 225.364 253.79 225.845 253.79ZM232.045 258.233V246.233H233.704V247.648H233.847C233.945 247.466 234.087 247.256 234.273 247.017C234.458 246.778 234.716 246.57 235.045 246.392C235.375 246.21 235.811 246.119 236.352 246.119C237.057 246.119 237.686 246.297 238.239 246.653C238.792 247.009 239.225 247.523 239.54 248.193C239.858 248.864 240.017 249.67 240.017 250.614C240.017 251.557 239.86 252.366 239.545 253.04C239.231 253.71 238.799 254.227 238.25 254.591C237.701 254.951 237.074 255.131 236.369 255.131C235.839 255.131 235.405 255.042 235.068 254.864C234.735 254.686 234.473 254.477 234.284 254.239C234.095 254 233.949 253.788 233.847 253.602H233.744V258.233H232.045ZM233.71 250.597C233.71 251.21 233.799 251.748 233.977 252.21C234.155 252.672 234.413 253.034 234.75 253.295C235.087 253.553 235.5 253.682 235.989 253.682C236.496 253.682 236.92 253.547 237.261 253.278C237.602 253.006 237.86 252.636 238.034 252.17C238.212 251.705 238.301 251.18 238.301 250.597C238.301 250.021 238.214 249.504 238.04 249.045C237.869 248.587 237.612 248.225 237.267 247.96C236.926 247.695 236.5 247.562 235.989 247.562C235.496 247.562 235.079 247.689 234.739 247.943C234.401 248.197 234.146 248.551 233.972 249.006C233.797 249.46 233.71 249.991 233.71 250.597ZM241.92 258.233V246.233H243.579V247.648H243.722C243.82 247.466 243.962 247.256 244.148 247.017C244.333 246.778 244.591 246.57 244.92 246.392C245.25 246.21 245.686 246.119 246.227 246.119C246.932 246.119 247.561 246.297 248.114 246.653C248.667 247.009 249.1 247.523 249.415 248.193C249.733 248.864 249.892 249.67 249.892 250.614C249.892 251.557 249.735 252.366 249.42 253.04C249.106 253.71 248.674 254.227 248.125 254.591C247.576 254.951 246.949 255.131 246.244 255.131C245.714 255.131 245.28 255.042 244.943 254.864C244.61 254.686 244.348 254.477 244.159 254.239C243.97 254 243.824 253.788 243.722 253.602H243.619V258.233H241.92ZM243.585 250.597C243.585 251.21 243.674 251.748 243.852 252.21C244.03 252.672 244.288 253.034 244.625 253.295C244.962 253.553 245.375 253.682 245.864 253.682C246.371 253.682 246.795 253.547 247.136 253.278C247.477 253.006 247.735 252.636 247.909 252.17C248.087 251.705 248.176 251.18 248.176 250.597C248.176 250.021 248.089 249.504 247.915 249.045C247.744 248.587 247.487 248.225 247.142 247.96C246.801 247.695 246.375 247.562 245.864 247.562C245.371 247.562 244.954 247.689 244.614 247.943C244.276 248.197 244.021 248.551 243.847 249.006C243.672 249.46 243.585 249.991 243.585 250.597ZM251.795 254.96V246.233H253.437V247.619H253.528C253.687 247.15 253.968 246.78 254.369 246.511C254.775 246.239 255.233 246.102 255.744 246.102C255.85 246.102 255.975 246.106 256.119 246.114C256.267 246.121 256.382 246.131 256.466 246.142V247.767C256.398 247.748 256.276 247.727 256.102 247.705C255.928 247.678 255.754 247.665 255.579 247.665C255.178 247.665 254.82 247.75 254.506 247.92C254.195 248.087 253.949 248.32 253.767 248.619C253.585 248.915 253.494 249.252 253.494 249.631V254.96H251.795ZM261.3 255.136C260.481 255.136 259.767 254.949 259.158 254.574C258.548 254.199 258.074 253.674 257.737 253C257.4 252.326 257.231 251.538 257.231 250.636C257.231 249.731 257.4 248.939 257.737 248.261C258.074 247.583 258.548 247.057 259.158 246.682C259.767 246.307 260.481 246.119 261.3 246.119C262.118 246.119 262.832 246.307 263.442 246.682C264.052 247.057 264.525 247.583 264.862 248.261C265.199 248.939 265.368 249.731 265.368 250.636C265.368 251.538 265.199 252.326 264.862 253C264.525 253.674 264.052 254.199 263.442 254.574C262.832 254.949 262.118 255.136 261.3 255.136ZM261.305 253.71C261.836 253.71 262.275 253.57 262.623 253.29C262.972 253.009 263.23 252.636 263.396 252.17C263.567 251.705 263.652 251.191 263.652 250.631C263.652 250.074 263.567 249.562 263.396 249.097C263.23 248.627 262.972 248.25 262.623 247.966C262.275 247.682 261.836 247.54 261.305 247.54C260.771 247.54 260.328 247.682 259.976 247.966C259.627 248.25 259.368 248.627 259.197 249.097C259.031 249.562 258.947 250.074 258.947 250.631C258.947 251.191 259.031 251.705 259.197 252.17C259.368 252.636 259.627 253.009 259.976 253.29C260.328 253.57 260.771 253.71 261.305 253.71ZM274.433 246.233L271.268 254.96H269.45L266.28 246.233H268.104L270.314 252.949H270.405L272.609 246.233H274.433ZM279.494 255.136C278.634 255.136 277.894 254.953 277.273 254.585C276.655 254.214 276.178 253.693 275.841 253.023C275.507 252.348 275.341 251.559 275.341 250.653C275.341 249.759 275.507 248.972 275.841 248.29C276.178 247.608 276.648 247.076 277.25 246.693C277.856 246.311 278.564 246.119 279.375 246.119C279.867 246.119 280.345 246.201 280.807 246.364C281.269 246.526 281.684 246.782 282.051 247.131C282.418 247.479 282.708 247.932 282.92 248.489C283.132 249.042 283.239 249.714 283.239 250.506V251.108H276.301V249.835H281.574C281.574 249.388 281.483 248.992 281.301 248.648C281.119 248.299 280.864 248.025 280.534 247.824C280.208 247.623 279.826 247.523 279.386 247.523C278.909 247.523 278.492 247.64 278.136 247.875C277.784 248.106 277.511 248.409 277.318 248.784C277.129 249.155 277.034 249.559 277.034 249.994V250.989C277.034 251.572 277.136 252.068 277.341 252.477C277.549 252.886 277.839 253.199 278.21 253.415C278.581 253.627 279.015 253.733 279.511 253.733C279.833 253.733 280.127 253.687 280.392 253.597C280.657 253.502 280.886 253.362 281.079 253.176C281.273 252.991 281.42 252.761 281.523 252.489L283.131 252.778C283.002 253.252 282.771 253.667 282.437 254.023C282.108 254.375 281.693 254.65 281.193 254.847C280.697 255.04 280.131 255.136 279.494 255.136ZM288.391 255.131C287.686 255.131 287.057 254.951 286.504 254.591C285.955 254.227 285.523 253.71 285.209 253.04C284.898 252.366 284.743 251.557 284.743 250.614C284.743 249.67 284.9 248.864 285.214 248.193C285.533 247.523 285.968 247.009 286.521 246.653C287.074 246.297 287.701 246.119 288.402 246.119C288.944 246.119 289.379 246.21 289.709 246.392C290.042 246.57 290.3 246.778 290.481 247.017C290.667 247.256 290.811 247.466 290.913 247.648H291.016V243.324H292.714V254.96H291.055V253.602H290.913C290.811 253.788 290.663 254 290.47 254.239C290.281 254.477 290.019 254.686 289.686 254.864C289.353 255.042 288.921 255.131 288.391 255.131ZM288.766 253.682C289.254 253.682 289.667 253.553 290.004 253.295C290.345 253.034 290.603 252.672 290.777 252.21C290.955 251.748 291.044 251.21 291.044 250.597C291.044 249.991 290.957 249.46 290.783 249.006C290.608 248.551 290.353 248.197 290.016 247.943C289.678 247.689 289.262 247.562 288.766 247.562C288.254 247.562 287.828 247.695 287.487 247.96C287.146 248.225 286.889 248.587 286.714 249.045C286.544 249.504 286.459 250.021 286.459 250.597C286.459 251.18 286.546 251.705 286.72 252.17C286.894 252.636 287.152 253.006 287.493 253.278C287.838 253.547 288.262 253.682 288.766 253.682ZM297.281 243.324L297.133 251.614H295.56L295.412 243.324H297.281ZM296.349 255.068C296.035 255.068 295.766 254.958 295.543 254.739C295.319 254.515 295.209 254.246 295.213 253.932C295.209 253.621 295.319 253.356 295.543 253.136C295.766 252.913 296.035 252.801 296.349 252.801C296.656 252.801 296.921 252.913 297.145 253.136C297.368 253.356 297.482 253.621 297.486 253.932C297.482 254.14 297.427 254.331 297.321 254.506C297.219 254.676 297.082 254.812 296.912 254.915C296.741 255.017 296.554 255.068 296.349 255.068Z" fill="#1A191E"/>
</svg>
