<svg width="44" height="41" viewBox="0 0 44 41" fill="none" xmlns="http://www.w3.org/2000/svg">
<ellipse cx="21.9028" cy="20.004" rx="21.9028" ry="20.004" fill="#E2E2E2"/>
<g clip-path="url(#clip0_1064_1695)">
<path d="M32.541 9.9998C31.5834 10.6753 30.5231 11.1919 29.401 11.5298C28.7988 10.8373 27.9983 10.3465 27.108 10.1237C26.2177 9.90096 25.2805 9.957 24.4231 10.2843C23.5657 10.6115 22.8295 11.1942 22.314 11.9535C21.7985 12.7128 21.5287 13.6121 21.541 14.5298V15.5298C19.7836 15.5754 18.0423 15.1856 16.472 14.3952C14.9018 13.6049 13.5513 12.4384 12.541 10.9998C12.541 10.9998 8.54102 19.9998 17.541 23.9998C15.4815 25.3978 13.0282 26.0987 10.541 25.9998C19.541 30.9998 30.541 25.9998 30.541 14.4998C30.5401 14.2213 30.5133 13.9434 30.461 13.6698C31.4816 12.6633 32.2018 11.3925 32.541 9.9998V9.9998Z" stroke="#383638" stroke-width="2" stroke-linecap="round" stroke-linejoin="round"/>
</g>
<defs>
<clipPath id="clip0_1064_1695">
<rect width="24" height="24" fill="white" transform="translate(9.54102 7)"/>
</clipPath>
</defs>
</svg>
